<svg xmlns="http://www.w3.org/2000/svg" viewBox="0 0 32 32" shape-rendering="crispEdges"><rect x="12" y="1" width="1" height="1" fill="rgb(121, 225, 224)"/><rect x="13" y="1" width="1" height="1" fill="rgb(122, 227, 226)"/><rect x="14" y="1" width="1" height="1" fill="rgb(121, 225, 225)"/><rect x="15" y="1" width="1" height="1" fill="rgb(118, 221, 221)"/><rect x="16" y="1" width="1" height="1" fill="rgb(114, 215, 216)"/><rect x="17" y="1" width="1" height="1" fill="rgb(108, 206, 210)"/><rect x="18" y="1" width="1" height="1" fill="rgb(99, 193, 200)"/><rect x="9" y="2" width="1" height="1" fill="rgb(127, 235, 232)"/><rect x="10" y="2" width="1" height="1" fill="rgb(133, 243, 238)"/><rect x="11" y="2" width="1" height="1" fill="rgb(135, 246, 240)"/><rect x="12" y="2" width="1" height="1" fill="rgb(135, 246, 240)"/><rect x="13" y="2" width="1" height="1" fill="rgb(134, 244, 239)"/><rect x="14" y="2" width="1" height="1" fill="rgb(131, 241, 236)"/><rect x="15" y="2" width="1" height="1" fill="rgb(128, 236, 233)"/><rect x="16" y="2" width="1" height="1" fill="rgb(124, 230, 228)"/><rect x="17" y="2" width="1" height="1" fill="rgb(119, 223, 223)"/><rect x="18" y="2" width="1" height="1" fill="rgb(113, 214, 216)"/><rect x="19" y="2" width="1" height="1" fill="rgb(106, 204, 208)"/><rect x="20" y="2" width="1" height="1" fill="rgb(97, 190, 198)"/><rect x="21" y="2" width="1" height="1" fill="rgb(84, 171, 184)"/><rect x="7" y="3" width="1" height="1" fill="rgb(126, 233, 230)"/><rect x="8" y="3" width="1" height="1" fill="rgb(137, 249, 242)"/><rect x="9" y="3" width="1" height="1" fill="rgb(140, 254, 247)"/><rect x="10" y="3" width="1" height="1" fill="rgb(142, 255, 248)"/><rect x="11" y="3" width="1" height="1" fill="rgb(142, 255, 249)"/><rect x="12" y="3" width="1" height="1" fill="rgb(141, 255, 247)"/><rect x="13" y="3" width="1" height="1" fill="rgb(139, 252, 246)"/><rect x="14" y="3" width="1" height="1" fill="rgb(137, 249, 243)"/><rect x="15" y="3" width="1" height="1" fill="rgb(134, 244, 239)"/><rect x="16" y="3" width="1" height="1" fill="rgb(130, 238, 235)"/><rect x="17" y="3" width="1" height="1" fill="rgb(125, 231, 229)"/><rect x="18" y="3" width="1" height="1" fill="rgb(120, 223, 223)"/><rect x="19" y="3" width="1" height="1" fill="rgb(113, 214, 216)"/><rect x="20" y="3" width="1" height="1" fill="rgb(106, 204, 208)"/><rect x="21" y="3" width="1" height="1" fill="rgb(98, 191, 198)"/><rect x="22" y="3" width="1" height="1" fill="rgb(87, 175, 186)"/><rect x="23" y="3" width="1" height="1" fill="rgb(69, 148, 166)"/><rect x="6" y="4" width="1" height="1" fill="rgb(133, 243, 238)"/><rect x="7" y="4" width="1" height="1" fill="rgb(141, 255, 247)"/><rect x="8" y="4" width="1" height="1" fill="rgb(144, 255, 251)"/><rect x="9" y="4" width="1" height="1" fill="rgb(146, 255, 253)"/><rect x="10" y="4" width="1" height="1" fill="rgb(147, 255, 254)"/><rect x="11" y="4" width="1" height="1" fill="rgb(146, 255, 253)"/><rect x="12" y="4" width="1" height="1" fill="rgb(145, 255, 252)"/><rect x="13" y="4" width="1" height="1" fill="rgb(143, 255, 249)"/><rect x="14" y="4" width="1" height="1" fill="rgb(140, 253, 246)"/><rect x="15" y="4" width="1" height="1" fill="rgb(137, 249, 243)"/><rect x="16" y="4" width="1" height="1" fill="rgb(133, 243, 238)"/><rect x="17" y="4" width="1" height="1" fill="rgb(128, 236, 233)"/><rect x="18" y="4" width="1" height="1" fill="rgb(123, 229, 228)"/><rect x="19" y="4" width="1" height="1" fill="rgb(117, 220, 221)"/><rect x="20" y="4" width="1" height="1" fill="rgb(111, 210, 214)"/><rect x="21" y="4" width="1" height="1" fill="rgb(103, 199, 205)"/><rect x="22" y="4" width="1" height="1" fill="rgb(95, 186, 195)"/><rect x="23" y="4" width="1" height="1" fill="rgb(84, 170, 183)"/><rect x="24" y="4" width="1" height="1" fill="rgb(69, 148, 166)"/><rect x="5" y="5" width="1" height="1" fill="rgb(134, 244, 239)"/><rect x="6" y="5" width="1" height="1" fill="rgb(142, 255, 249)"/><rect x="7" y="5" width="1" height="1" fill="rgb(146, 255, 253)"/><rect x="8" y="5" width="1" height="1" fill="rgb(148, 255, 255)"/><rect x="9" y="5" width="1" height="1" fill="rgb(149, 255, 255)"/><rect x="10" y="5" width="1" height="1" fill="rgb(149, 255, 255)"/><rect x="11" y="5" width="1" height="1" fill="rgb(148, 255, 255)"/><rect x="12" y="5" width="1" height="1" fill="rgb(147, 255, 254)"/><rect x="13" y="5" width="1" height="1" fill="rgb(145, 255, 252)"/><rect x="14" y="5" width="1" height="1" fill="rgb(142, 255, 249)"/><rect x="15" y="5" width="1" height="1" fill="rgb(139, 251, 245)"/><rect x="16" y="5" width="1" height="1" fill="rgb(135, 246, 241)"/><rect x="17" y="5" width="1" height="1" fill="rgb(130, 239, 236)"/><rect x="18" y="5" width="1" height="1" fill="rgb(125, 232, 230)"/><rect x="19" y="5" width="1" height="1" fill="rgb(120, 224, 224)"/><rect x="20" y="5" width="1" height="1" fill="rgb(114, 214, 217)"/><rect x="21" y="5" width="1" height="1" fill="rgb(107, 204, 209)"/><rect x="22" y="5" width="1" height="1" fill="rgb(99, 192, 200)"/><rect x="23" y="5" width="1" height="1" fill="rgb(89, 179, 189)"/><rect x="24" y="5" width="1" height="1" fill="rgb(78, 162, 177)"/><rect x="25" y="5" width="1" height="1" fill="rgb(63, 139, 159)"/><rect x="4" y="6" width="1" height="1" fill="rgb(132, 241, 237)"/><rect x="5" y="6" width="1" height="1" fill="rgb(142, 255, 248)"/><rect x="6" y="6" width="1" height="1" fill="rgb(147, 255, 254)"/><rect x="7" y="6" width="1" height="1" fill="rgb(149, 255, 255)"/><rect x="8" y="6" width="1" height="1" fill="rgb(151, 255, 255)"/><rect x="9" y="6" width="1" height="1" fill="rgb(151, 255, 255)"/><rect x="10" y="6" width="1" height="1" fill="rgb(151, 255, 255)"/><rect x="11" y="6" width="1" height="1" fill="rgb(149, 255, 255)"/><rect x="12" y="6" width="1" height="1" fill="rgb(148, 255, 255)"/><rect x="13" y="6" width="1" height="1" fill="rgb(145, 255, 253)"/><rect x="14" y="6" width="1" height="1" fill="rgb(143, 255, 250)"/><rect x="15" y="6" width="1" height="1" fill="rgb(139, 253, 246)"/><rect x="16" y="6" width="1" height="1" fill="rgb(136, 247, 242)"/><rect x="17" y="6" width="1" height="1" fill="rgb(131, 241, 237)"/><rect x="18" y="6" width="1" height="1" fill="rgb(126, 233, 231)"/><rect x="19" y="6" width="1" height="1" fill="rgb(121, 225, 225)"/><rect x="20" y="6" width="1" height="1" fill="rgb(115, 216, 218)"/><rect x="21" y="6" width="1" height="1" fill="rgb(108, 207, 211)"/><rect x="22" y="6" width="1" height="1" fill="rgb(101, 195, 202)"/><rect x="23" y="6" width="1" height="1" fill="rgb(92, 183, 193)"/><rect x="24" y="6" width="1" height="1" fill="rgb(82, 168, 181)"/><rect x="25" y="6" width="1" height="1" fill="rgb(70, 151, 168)"/><rect x="26" y="6" width="1" height="1" fill="rgb(53, 125, 148)"/><rect x="3" y="7" width="1" height="1" fill="rgb(124, 229, 228)"/><rect x="4" y="7" width="1" height="1" fill="rgb(139, 252, 245)"/><rect x="5" y="7" width="1" height="1" fill="rgb(145, 255, 252)"/><rect x="6" y="7" width="1" height="1" fill="rgb(149, 255, 255)"/><rect x="7" y="7" width="1" height="1" fill="rgb(151, 255, 255)"/><rect x="8" y="7" width="1" height="1" fill="rgb(152, 255, 255)"/><rect x="9" y="7" width="1" height="1" fill="rgb(152, 255, 255)"/><rect x="10" y="7" width="1" height="1" fill="rgb(151, 255, 255)"/><rect x="11" y="7" width="1" height="1" fill="rgb(150, 255, 255)"/><rect x="12" y="7" width="1" height="1" fill="rgb(148, 255, 255)"/><rect x="13" y="7" width="1" height="1" fill="rgb(146, 255, 253)"/><rect x="14" y="7" width="1" height="1" fill="rgb(143, 255, 250)"/><rect x="15" y="7" width="1" height="1" fill="rgb(139, 253, 246)"/><rect x="16" y="7" width="1" height="1" fill="rgb(136, 247, 242)"/><rect x="17" y="7" width="1" height="1" fill="rgb(131, 241, 237)"/><rect x="18" y="7" width="1" height="1" fill="rgb(127, 234, 231)"/><rect x="19" y="7" width="1" height="1" fill="rgb(121, 226, 225)"/><rect x="20" y="7" width="1" height="1" fill="rgb(115, 217, 219)"/><rect x="21" y="7" width="1" height="1" fill="rgb(109, 208, 211)"/><rect x="22" y="7" width="1" height="1" fill="rgb(102, 197, 203)"/><rect x="23" y="7" width="1" height="1" fill="rgb(94, 185, 194)"/><rect x="24" y="7" width="1" height="1" fill="rgb(85, 172, 184)"/><rect x="25" y="7" width="1" height="1" fill="rgb(74, 156, 172)"/><rect x="26" y="7" width="1" height="1" fill="rgb(61, 136, 157)"/><rect x="27" y="7" width="1" height="1" fill="rgb(40, 105, 133)"/><rect x="3" y="8" width="1" height="1" fill="rgb(134, 244, 239)"/><rect x="4" y="8" width="1" height="1" fill="rgb(142, 255, 249)"/><rect x="5" y="8" width="1" height="1" fill="rgb(147, 255, 254)"/><rect x="6" y="8" width="1" height="1" fill="rgb(149, 255, 255)"/><rect x="7" y="8" width="1" height="1" fill="rgb(151, 255, 255)"/><rect x="8" y="8" width="1" height="1" fill="rgb(152, 255, 255)"/><rect x="9" y="8" width="1" height="1" fill="rgb(151, 255, 255)"/><rect x="10" y="8" width="1" height="1" fill="rgb(151, 255, 255)"/><rect x="11" y="8" width="1" height="1" fill="rgb(149, 255, 255)"/><rect x="12" y="8" width="1" height="1" fill="rgb(147, 255, 255)"/><rect x="13" y="8" width="1" height="1" fill="rgb(145, 255, 252)"/><rect x="14" y="8" width="1" height="1" fill="rgb(142, 255, 249)"/><rect x="15" y="8" width="1" height="1" fill="rgb(139, 252, 246)"/><rect x="16" y="8" width="1" height="1" fill="rgb(135, 246, 241)"/><rect x="17" y="8" width="1" height="1" fill="rgb(131, 240, 236)"/><rect x="18" y="8" width="1" height="1" fill="rgb(126, 233, 231)"/><rect x="19" y="8" width="1" height="1" fill="rgb(121, 225, 225)"/><rect x="20" y="8" width="1" height="1" fill="rgb(115, 217, 218)"/><rect x="21" y="8" width="1" height="1" fill="rgb(109, 207, 211)"/><rect x="22" y="8" width="1" height="1" fill="rgb(102, 197, 203)"/><rect x="23" y="8" width="1" height="1" fill="rgb(94, 186, 195)"/><rect x="24" y="8" width="1" height="1" fill="rgb(85, 173, 185)"/><rect x="25" y="8" width="1" height="1" fill="rgb(75, 158, 174)"/><rect x="26" y="8" width="1" height="1" fill="rgb(64, 141, 160)"/><rect x="27" y="8" width="1" height="1" fill="rgb(48, 118, 143)"/><rect x="2" y="9" width="1" height="1" fill="rgb(123, 229, 227)"/><rect x="3" y="9" width="1" height="1" fill="rgb(137, 249, 243)"/><rect x="4" y="9" width="1" height="1" fill="rgb(143, 255, 250)"/><rect x="5" y="9" width="1" height="1" fill="rgb(147, 255, 254)"/><rect x="6" y="9" width="1" height="1" fill="rgb(149, 255, 255)"/><rect x="7" y="9" width="1" height="1" fill="rgb(150, 255, 255)"/><rect x="8" y="9" width="1" height="1" fill="rgb(151, 255, 255)"/><rect x="9" y="9" width="1" height="1" fill="rgb(151, 255, 255)"/><rect x="10" y="9" width="1" height="1" fill="rgb(150, 255, 255)"/><rect x="11" y="9" width="1" height="1" fill="rgb(148, 255, 255)"/><rect x="12" y="9" width="1" height="1" fill="rgb(146, 255, 254)"/><rect x="13" y="9" width="1" height="1" fill="rgb(144, 255, 251)"/><rect x="14" y="9" width="1" height="1" fill="rgb(141, 255, 248)"/><rect x="15" y="9" width="1" height="1" fill="rgb(138, 250, 244)"/><rect x="16" y="9" width="1" height="1" fill="rgb(134, 245, 240)"/><rect x="17" y="9" width="1" height="1" fill="rgb(130, 239, 235)"/><rect x="18" y="9" width="1" height="1" fill="rgb(125, 232, 230)"/><rect x="19" y="9" width="1" height="1" fill="rgb(120, 224, 224)"/><rect x="20" y="9" width="1" height="1" fill="rgb(114, 215, 217)"/><rect x="21" y="9" width="1" height="1" fill="rgb(108, 206, 210)"/><rect x="22" y="9" width="1" height="1" fill="rgb(101, 196, 203)"/><rect x="23" y="9" width="1" height="1" fill="rgb(93, 185, 194)"/><rect x="24" y="9" width="1" height="1" fill="rgb(85, 172, 185)"/><rect x="25" y="9" width="1" height="1" fill="rgb(76, 159, 174)"/><rect x="26" y="9" width="1" height="1" fill="rgb(65, 142, 162)"/><rect x="27" y="9" width="1" height="1" fill="rgb(51, 123, 146)"/><rect x="28" y="9" width="1" height="1" fill="rgb(40, 106, 133)"/><rect x="2" y="10" width="1" height="1" fill="rgb(128, 236, 233)"/><rect x="3" y="10" width="1" height="1" fill="rgb(138, 250, 244)"/><rect x="4" y="10" width="1" height="1" fill="rgb(143, 255, 250)"/><rect x="5" y="10" width="1" height="1" fill="rgb(146, 255, 254)"/><rect x="6" y="10" width="1" height="1" fill="rgb(148, 255, 255)"/><rect x="7" y="10" width="1" height="1" fill="rgb(149, 255, 255)"/><rect x="8" y="10" width="1" height="1" fill="rgb(150, 255, 255)"/><rect x="9" y="10" width="1" height="1" fill="rgb(149, 255, 255)"/><rect x="10" y="10" width="1" height="1" fill="rgb(148, 255, 255)"/><rect x="11" y="10" width="1" height="1" fill="rgb(147, 255, 254)"/><rect x="12" y="10" width="1" height="1" fill="rgb(145, 255, 252)"/><rect x="13" y="10" width="1" height="1" fill="rgb(142, 255, 250)"/><rect x="14" y="10" width="1" height="1" fill="rgb(140, 253, 246)"/><rect x="15" y="10" width="1" height="1" fill="rgb(136, 248, 243)"/><rect x="16" y="10" width="1" height="1" fill="rgb(132, 243, 238)"/><rect x="17" y="10" width="1" height="1" fill="rgb(128, 236, 234)"/><rect x="18" y="10" width="1" height="1" fill="rgb(123, 229, 228)"/><rect x="19" y="10" width="1" height="1" fill="rgb(118, 222, 222)"/><rect x="20" y="10" width="1" height="1" fill="rgb(113, 213, 216)"/><rect x="21" y="10" width="1" height="1" fill="rgb(106, 204, 209)"/><rect x="22" y="10" width="1" height="1" fill="rgb(100, 194, 201)"/><rect x="23" y="10" width="1" height="1" fill="rgb(92, 183, 193)"/><rect x="24" y="10" width="1" height="1" fill="rgb(84, 171, 184)"/><rect x="25" y="10" width="1" height="1" fill="rgb(75, 157, 173)"/><rect x="26" y="10" width="1" height="1" fill="rgb(65, 142, 161)"/><rect x="27" y="10" width="1" height="1" fill="rgb(52, 124, 147)"/><rect x="28" y="10" width="1" height="1" fill="rgb(40, 106, 134)"/><rect x="2" y="11" width="1" height="1" fill="rgb(130, 238, 235)"/><rect x="3" y="11" width="1" height="1" fill="rgb(137, 250, 243)"/><rect x="4" y="11" width="1" height="1" fill="rgb(142, 255, 249)"/><rect x="5" y="11" width="1" height="1" fill="rgb(145, 255, 252)"/><rect x="6" y="11" width="1" height="1" fill="rgb(147, 255, 254)"/><rect x="7" y="11" width="1" height="1" fill="rgb(147, 255, 255)"/><rect x="8" y="11" width="1" height="1" fill="rgb(148, 255, 255)"/><rect x="9" y="11" width="1" height="1" fill="rgb(147, 255, 255)"/><rect x="10" y="11" width="1" height="1" fill="rgb(146, 255, 254)"/><rect x="11" y="11" width="1" height="1" fill="rgb(145, 255, 252)"/><rect x="12" y="11" width="1" height="1" fill="rgb(143, 255, 250)"/><rect x="13" y="11" width="1" height="1" fill="rgb(140, 254, 247)"/><rect x="14" y="11" width="1" height="1" fill="rgb(137, 250, 244)"/><rect x="15" y="11" width="1" height="1" fill="rgb(134, 245, 240)"/><rect x="16" y="11" width="1" height="1" fill="rgb(130, 240, 236)"/><rect x="17" y="11" width="1" height="1" fill="rgb(126, 233, 231)"/><rect x="18" y="11" width="1" height="1" fill="rgb(121, 226, 226)"/><rect x="19" y="11" width="1" height="1" fill="rgb(116, 219, 220)"/><rect x="20" y="11" width="1" height="1" fill="rgb(111, 210, 214)"/><rect x="21" y="11" width="1" height="1" fill="rgb(104, 201, 207)"/><rect x="22" y="11" width="1" height="1" fill="rgb(98, 191, 199)"/><rect x="23" y="11" width="1" height="1" fill="rgb(90, 180, 191)"/><rect x="24" y="11" width="1" height="1" fill="rgb(82, 168, 182)"/><rect x="25" y="11" width="1" height="1" fill="rgb(74, 155, 172)"/><rect x="26" y="11" width="1" height="1" fill="rgb(64, 141, 160)"/><rect x="27" y="11" width="1" height="1" fill="rgb(52, 123, 147)"/><rect x="28" y="11" width="1" height="1" fill="rgb(40, 106, 134)"/><rect x="1" y="12" width="1" height="1" fill="rgb(114, 216, 217)"/><rect x="2" y="12" width="1" height="1" fill="rgb(129, 237, 234)"/><rect x="3" y="12" width="1" height="1" fill="rgb(136, 247, 242)"/><rect x="4" y="12" width="1" height="1" fill="rgb(140, 254, 246)"/><rect x="5" y="12" width="1" height="1" fill="rgb(143, 255, 250)"/><rect x="6" y="12" width="1" height="1" fill="rgb(144, 255, 251)"/><rect x="7" y="12" width="1" height="1" fill="rgb(145, 255, 252)"/><rect x="8" y="12" width="1" height="1" fill="rgb(145, 255, 253)"/><rect x="9" y="12" width="1" height="1" fill="rgb(145, 255, 252)"/><rect x="10" y="12" width="1" height="1" fill="rgb(144, 255, 251)"/><rect x="11" y="12" width="1" height="1" fill="rgb(142, 255, 249)"/><rect x="12" y="12" width="1" height="1" fill="rgb(140, 254, 247)"/><rect x="13" y="12" width="1" height="1" fill="rgb(138, 251, 245)"/><rect x="14" y="12" width="1" height="1" fill="rgb(135, 247, 242)"/><rect x="15" y="12" width="1" height="1" fill="rgb(132, 242, 238)"/><rect x="16" y="12" width="1" height="1" fill="rgb(128, 236, 234)"/><rect x="17" y="12" width="1" height="1" fill="rgb(124, 230, 229)"/><rect x="18" y="12" width="1" height="1" fill="rgb(119, 223, 223)"/><rect x="19" y="12" width="1" height="1" fill="rgb(114, 215, 217)"/><rect x="20" y="12" width="1" height="1" fill="rgb(108, 206, 211)"/><rect x="21" y="12" width="1" height="1" fill="rgb(102, 197, 204)"/><rect x="22" y="12" width="1" height="1" fill="rgb(95, 188, 196)"/><rect x="23" y="12" width="1" height="1" fill="rgb(88, 177, 188)"/><rect x="24" y="12" width="1" height="1" fill="rgb(80, 165, 179)"/><rect x="25" y="12" width="1" height="1" fill="rgb(71, 152, 169)"/><rect x="26" y="12" width="1" height="1" fill="rgb(62, 138, 158)"/><rect x="27" y="12" width="1" height="1" fill="rgb(50, 121, 145)"/><rect x="28" y="12" width="1" height="1" fill="rgb(40, 106, 134)"/><rect x="29" y="12" width="1" height="1" fill="rgb(40, 106, 133)"/><rect x="1" y="13" width="1" height="1" fill="rgb(115, 217, 218)"/><rect x="2" y="13" width="1" height="1" fill="rgb(127, 235, 232)"/><rect x="3" y="13" width="1" height="1" fill="rgb(134, 244, 239)"/><rect x="4" y="13" width="1" height="1" fill="rgb(137, 250, 244)"/><rect x="5" y="13" width="1" height="1" fill="rgb(140, 253, 246)"/><rect x="6" y="13" width="1" height="1" fill="rgb(141, 255, 248)"/><rect x="7" y="13" width="1" height="1" fill="rgb(142, 255, 249)"/><rect x="8" y="13" width="1" height="1" fill="rgb(142, 255, 249)"/><rect x="9" y="13" width="1" height="1" fill="rgb(142, 255, 249)"/><rect x="10" y="13" width="1" height="1" fill="rgb(141, 255, 248)"/><rect x="11" y="13" width="1" height="1" fill="rgb(139, 253, 246)"/><rect x="12" y="13" width="1" height="1" fill="rgb(137, 250, 244)"/><rect x="13" y="13" width="1" height="1" fill="rgb(135, 246, 242)"/><rect x="14" y="13" width="1" height="1" fill="rgb(132, 242, 238)"/><rect x="15" y="13" width="1" height="1" fill="rgb(129, 237, 235)"/><rect x="16" y="13" width="1" height="1" fill="rgb(125, 232, 230)"/><rect x="17" y="13" width="1" height="1" fill="rgb(121, 225, 225)"/><rect x="18" y="13" width="1" height="1" fill="rgb(116, 218, 220)"/><rect x="19" y="13" width="1" height="1" fill="rgb(111, 210, 214)"/><rect x="20" y="13" width="1" height="1" fill="rgb(105, 202, 208)"/><rect x="21" y="13" width="1" height="1" fill="rgb(99, 193, 201)"/><rect x="22" y="13" width="1" height="1" fill="rgb(92, 183, 193)"/><rect x="23" y="13" width="1" height="1" fill="rgb(85, 173, 185)"/><rect x="24" y="13" width="1" height="1" fill="rgb(77, 161, 176)"/><rect x="25" y="13" width="1" height="1" fill="rgb(69, 148, 166)"/><rect x="26" y="13" width="1" height="1" fill="rgb(59, 134, 155)"/><rect x="27" y="13" width="1" height="1" fill="rgb(48, 118, 143)"/><rect x="28" y="13" width="1" height="1" fill="rgb(40, 106, 134)"/><rect x="29" y="13" width="1" height="1" fill="rgb(40, 106, 133)"/><rect x="1" y="14" width="1" height="1" fill="rgb(113, 214, 216)"/><rect x="2" y="14" width="1" height="1" fill="rgb(124, 230, 229)"/><rect x="3" y="14" width="1" height="1" fill="rgb(130, 239, 236)"/><rect x="4" y="14" width="1" height="1" fill="rgb(134, 245, 240)"/><rect x="5" y="14" width="1" height="1" fill="rgb(137, 249, 243)"/><rect x="6" y="14" width="1" height="1" fill="rgb(138, 251, 244)"/><rect x="7" y="14" width="1" height="1" fill="rgb(139, 252, 245)"/><rect x="8" y="14" width="1" height="1" fill="rgb(139, 252, 245)"/><rect x="9" y="14" width="1" height="1" fill="rgb(138, 251, 245)"/><rect x="10" y="14" width="1" height="1" fill="rgb(137, 250, 244)"/><rect x="11" y="14" width="1" height="1" fill="rgb(136, 248, 242)"/><rect x="12" y="14" width="1" height="1" fill="rgb(134, 245, 240)"/><rect x="13" y="14" width="1" height="1" fill="rgb(132, 241, 238)"/><rect x="14" y="14" width="1" height="1" fill="rgb(129, 238, 235)"/><rect x="15" y="14" width="1" height="1" fill="rgb(126, 233, 231)"/><rect x="16" y="14" width="1" height="1" fill="rgb(122, 227, 227)"/><rect x="17" y="14" width="1" height="1" fill="rgb(117, 220, 222)"/><rect x="18" y="14" width="1" height="1" fill="rgb(113, 213, 216)"/><rect x="19" y="14" width="1" height="1" fill="rgb(107, 205, 210)"/><rect x="20" y="14" width="1" height="1" fill="rgb(102, 197, 204)"/><rect x="21" y="14" width="1" height="1" fill="rgb(95, 188, 197)"/><rect x="22" y="14" width="1" height="1" fill="rgb(89, 178, 189)"/><rect x="23" y="14" width="1" height="1" fill="rgb(82, 167, 181)"/><rect x="24" y="14" width="1" height="1" fill="rgb(74, 156, 172)"/><rect x="25" y="14" width="1" height="1" fill="rgb(65, 143, 162)"/><rect x="26" y="14" width="1" height="1" fill="rgb(56, 129, 152)"/><rect x="27" y="14" width="1" height="1" fill="rgb(45, 113, 139)"/><rect x="28" y="14" width="1" height="1" fill="rgb(40, 106, 134)"/><rect x="29" y="14" width="1" height="1" fill="rgb(40, 106, 134)"/><rect x="1" y="15" width="1" height="1" fill="rgb(110, 209, 212)"/><rect x="2" y="15" width="1" height="1" fill="rgb(121, 225, 225)"/><rect x="3" y="15" width="1" height="1" fill="rgb(127, 234, 231)"/><rect x="4" y="15" width="1" height="1" fill="rgb(130, 239, 236)"/><rect x="5" y="15" width="1" height="1" fill="rgb(133, 243, 238)"/><rect x="6" y="15" width="1" height="1" fill="rgb(134, 245, 240)"/><rect x="7" y="15" width="1" height="1" fill="rgb(135, 246, 241)"/><rect x="8" y="15" width="1" height="1" fill="rgb(135, 246, 241)"/><rect x="9" y="15" width="1" height="1" fill="rgb(134, 245, 240)"/><rect x="10" y="15" width="1" height="1" fill="rgb(133, 244, 239)"/><rect x="11" y="15" width="1" height="1" fill="rgb(132, 242, 238)"/><rect x="12" y="15" width="1" height="1" fill="rgb(130, 239, 236)"/><rect x="13" y="15" width="1" height="1" fill="rgb(128, 236, 233)"/><rect x="14" y="15" width="1" height="1" fill="rgb(125, 232, 231)"/><rect x="15" y="15" width="1" height="1" fill="rgb(122, 228, 227)"/><rect x="16" y="15" width="1" height="1" fill="rgb(118, 221, 223)"/><rect x="17" y="15" width="1" height="1" fill="rgb(113, 215, 217)"/><rect x="18" y="15" width="1" height="1" fill="rgb(109, 207, 212)"/><rect x="19" y="15" width="1" height="1" fill="rgb(103, 200, 206)"/><rect x="20" y="15" width="1" height="1" fill="rgb(98, 191, 199)"/><rect x="21" y="15" width="1" height="1" fill="rgb(92, 182, 192)"/><rect x="22" y="15" width="1" height="1" fill="rgb(85, 172, 185)"/><rect x="23" y="15" width="1" height="1" fill="rgb(78, 162, 177)"/><rect x="24" y="15" width="1" height="1" fill="rgb(70, 150, 168)"/><rect x="25" y="15" width="1" height="1" fill="rgb(61, 138, 158)"/><rect x="26" y="15" width="1" height="1" fill="rgb(52, 123, 147)"/><rect x="27" y="15" width="1" height="1" fill="rgb(41, 107, 135)"/><rect x="28" y="15" width="1" height="1" fill="rgb(40, 106, 134)"/><rect x="29" y="15" width="1" height="1" fill="rgb(40, 106, 134)"/><rect x="1" y="16" width="1" height="1" fill="rgb(105, 202, 207)"/><rect x="2" y="16" width="1" height="1" fill="rgb(116, 218, 219)"/><rect x="3" y="16" width="1" height="1" fill="rgb(122, 227, 226)"/><rect x="4" y="16" width="1" height="1" fill="rgb(126, 233, 231)"/><rect x="5" y="16" width="1" height="1" fill="rgb(128, 236, 233)"/><rect x="6" y="16" width="1" height="1" fill="rgb(130, 239, 235)"/><rect x="7" y="16" width="1" height="1" fill="rgb(130, 240, 236)"/><rect x="8" y="16" width="1" height="1" fill="rgb(130, 240, 236)"/><rect x="9" y="16" width="1" height="1" fill="rgb(130, 239, 236)"/><rect x="10" y="16" width="1" height="1" fill="rgb(129, 237, 235)"/><rect x="11" y="16" width="1" height="1" fill="rgb(127, 235, 233)"/><rect x="12" y="16" width="1" height="1" fill="rgb(126, 233, 231)"/><rect x="13" y="16" width="1" height="1" fill="rgb(123, 229, 228)"/><rect x="14" y="16" width="1" height="1" fill="rgb(121, 225, 225)"/><rect x="15" y="16" width="1" height="1" fill="rgb(117, 221, 222)"/><rect x="16" y="16" width="1" height="1" fill="rgb(114, 215, 217)"/><rect x="17" y="16" width="1" height="1" fill="rgb(109, 208, 212)"/><rect x="18" y="16" width="1" height="1" fill="rgb(104, 201, 207)"/><rect x="19" y="16" width="1" height="1" fill="rgb(99, 193, 201)"/><rect x="20" y="16" width="1" height="1" fill="rgb(93, 185, 194)"/><rect x="21" y="16" width="1" height="1" fill="rgb(87, 176, 187)"/><rect x="22" y="16" width="1" height="1" fill="rgb(81, 166, 180)"/><rect x="23" y="16" width="1" height="1" fill="rgb(73, 155, 172)"/><rect x="24" y="16" width="1" height="1" fill="rgb(66, 144, 163)"/><rect x="25" y="16" width="1" height="1" fill="rgb(57, 131, 153)"/><rect x="26" y="16" width="1" height="1" fill="rgb(47, 117, 142)"/><rect x="27" y="16" width="1" height="1" fill="rgb(41, 107, 135)"/><rect x="28" y="16" width="1" height="1" fill="rgb(40, 106, 134)"/><rect x="29" y="16" width="1" height="1" fill="rgb(40, 106, 134)"/><rect x="1" y="17" width="1" height="1" fill="rgb(99, 192, 199)"/><rect x="2" y="17" width="1" height="1" fill="rgb(111, 210, 213)"/><rect x="3" y="17" width="1" height="1" fill="rgb(117, 219, 220)"/><rect x="4" y="17" width="1" height="1" fill="rgb(121, 225, 225)"/><rect x="5" y="17" width="1" height="1" fill="rgb(123, 229, 228)"/><rect x="6" y="17" width="1" height="1" fill="rgb(125, 231, 230)"/><rect x="7" y="17" width="1" height="1" fill="rgb(126, 232, 230)"/><rect x="8" y="17" width="1" height="1" fill="rgb(126, 232, 231)"/><rect x="9" y="17" width="1" height="1" fill="rgb(125, 232, 230)"/><rect x="10" y="17" width="1" height="1" fill="rgb(124, 230, 229)"/><rect x="11" y="17" width="1" height="1" fill="rgb(123, 228, 227)"/><rect x="12" y="17" width="1" height="1" fill="rgb(121, 225, 225)"/><rect x="13" y="17" width="1" height="1" fill="rgb(118, 222, 223)"/><rect x="14" y="17" width="1" height="1" fill="rgb(116, 218, 220)"/><rect x="15" y="17" width="1" height="1" fill="rgb(112, 213, 216)"/><rect x="16" y="17" width="1" height="1" fill="rgb(108, 207, 212)"/><rect x="17" y="17" width="1" height="1" fill="rgb(104, 201, 207)"/><rect x="18" y="17" width="1" height="1" fill="rgb(99, 194, 201)"/><rect x="19" y="17" width="1" height="1" fill="rgb(94, 186, 195)"/><rect x="20" y="17" width="1" height="1" fill="rgb(88, 178, 189)"/><rect x="21" y="17" width="1" height="1" fill="rgb(82, 169, 182)"/><rect x="22" y="17" width="1" height="1" fill="rgb(76, 159, 174)"/><rect x="23" y="17" width="1" height="1" fill="rgb(69, 148, 166)"/><rect x="24" y="17" width="1" height="1" fill="rgb(61, 136, 157)"/><rect x="25" y="17" width="1" height="1" fill="rgb(52, 124, 147)"/><rect x="26" y="17" width="1" height="1" fill="rgb(42, 109, 137)"/><rect x="27" y="17" width="1" height="1" fill="rgb(41, 107, 135)"/><rect x="28" y="17" width="1" height="1" fill="rgb(40, 106, 134)"/><rect x="29" y="17" width="1" height="1" fill="rgb(40, 106, 133)"/><rect x="1" y="18" width="1" height="1" fill="rgb(89, 179, 189)"/><rect x="2" y="18" width="1" height="1" fill="rgb(104, 201, 206)"/><rect x="3" y="18" width="1" height="1" fill="rgb(111, 211, 214)"/><rect x="4" y="18" width="1" height="1" fill="rgb(115, 217, 218)"/><rect x="5" y="18" width="1" height="1" fill="rgb(118, 221, 222)"/><rect x="6" y="18" width="1" height="1" fill="rgb(119, 223, 223)"/><rect x="7" y="18" width="1" height="1" fill="rgb(120, 224, 224)"/><rect x="8" y="18" width="1" height="1" fill="rgb(120, 225, 225)"/><rect x="9" y="18" width="1" height="1" fill="rgb(120, 224, 224)"/><rect x="10" y="18" width="1" height="1" fill="rgb(119, 222, 223)"/><rect x="11" y="18" width="1" height="1" fill="rgb(117, 220, 221)"/><rect x="12" y="18" width="1" height="1" fill="rgb(115, 217, 219)"/><rect x="13" y="18" width="1" height="1" fill="rgb(113, 214, 217)"/><rect x="14" y="18" width="1" height="1" fill="rgb(110, 210, 214)"/><rect x="15" y="18" width="1" height="1" fill="rgb(107, 205, 210)"/><rect x="16" y="18" width="1" height="1" fill="rgb(103, 199, 206)"/><rect x="17" y="18" width="1" height="1" fill="rgb(99, 193, 201)"/><rect x="18" y="18" width="1" height="1" fill="rgb(94, 186, 195)"/><rect x="19" y="18" width="1" height="1" fill="rgb(89, 178, 189)"/><rect x="20" y="18" width="1" height="1" fill="rgb(83, 170, 183)"/><rect x="21" y="18" width="1" height="1" fill="rgb(77, 161, 176)"/><rect x="22" y="18" width="1" height="1" fill="rgb(70, 151, 168)"/><rect x="23" y="18" width="1" height="1" fill="rgb(63, 140, 160)"/><rect x="24" y="18" width="1" height="1" fill="rgb(55, 128, 151)"/><rect x="25" y="18" width="1" height="1" fill="rgb(47, 115, 141)"/><rect x="26" y="18" width="1" height="1" fill="rgb(41, 107, 135)"/><rect x="27" y="18" width="1" height="1" fill="rgb(41, 107, 134)"/><rect x="28" y="18" width="1" height="1" fill="rgb(40, 106, 134)"/><rect x="29" y="18" width="1" height="1" fill="rgb(40, 106, 133)"/><rect x="2" y="19" width="1" height="1" fill="rgb(97, 189, 197)"/><rect x="3" y="19" width="1" height="1" fill="rgb(104, 201, 206)"/><rect x="4" y="19" width="1" height="1" fill="rgb(109, 207, 211)"/><rect x="5" y="19" width="1" height="1" fill="rgb(112, 212, 215)"/><rect x="6" y="19" width="1" height="1" fill="rgb(113, 214, 217)"/><rect x="7" y="19" width="1" height="1" fill="rgb(114, 216, 218)"/><rect x="8" y="19" width="1" height="1" fill="rgb(114, 216, 218)"/><rect x="9" y="19" width="1" height="1" fill="rgb(114, 215, 218)"/><rect x="10" y="19" width="1" height="1" fill="rgb(113, 214, 216)"/><rect x="11" y="19" width="1" height="1" fill="rgb(112, 212, 215)"/><rect x="12" y="19" width="1" height="1" fill="rgb(110, 209, 213)"/><rect x="13" y="19" width="1" height="1" fill="rgb(107, 205, 210)"/><rect x="14" y="19" width="1" height="1" fill="rgb(104, 201, 207)"/><rect x="15" y="19" width="1" height="1" fill="rgb(101, 196, 203)"/><rect x="16" y="19" width="1" height="1" fill="rgb(97, 191, 199)"/><rect x="17" y="19" width="1" height="1" fill="rgb(93, 184, 194)"/><rect x="18" y="19" width="1" height="1" fill="rgb(88, 177, 189)"/><rect x="19" y="19" width="1" height="1" fill="rgb(83, 170, 183)"/><rect x="20" y="19" width="1" height="1" fill="rgb(77, 161, 176)"/><rect x="21" y="19" width="1" height="1" fill="rgb(71, 152, 169)"/><rect x="22" y="19" width="1" height="1" fill="rgb(65, 142, 162)"/><rect x="23" y="19" width="1" height="1" fill="rgb(57, 131, 153)"/><rect x="24" y="19" width="1" height="1" fill="rgb(49, 120, 144)"/><rect x="25" y="19" width="1" height="1" fill="rgb(41, 108, 135)"/><rect x="26" y="19" width="1" height="1" fill="rgb(41, 107, 135)"/><rect x="27" y="19" width="1" height="1" fill="rgb(41, 107, 134)"/><rect x="28" y="19" width="1" height="1" fill="rgb(40, 106, 134)"/><rect x="2" y="20" width="1" height="1" fill="rgb(87, 175, 186)"/><rect x="3" y="20" width="1" height="1" fill="rgb(96, 189, 197)"/><rect x="4" y="20" width="1" height="1" fill="rgb(102, 197, 203)"/><rect x="5" y="20" width="1" height="1" fill="rgb(105, 202, 207)"/><rect x="6" y="20" width="1" height="1" fill="rgb(107, 205, 209)"/><rect x="7" y="20" width="1" height="1" fill="rgb(108, 206, 210)"/><rect x="8" y="20" width="1" height="1" fill="rgb(108, 207, 211)"/><rect x="9" y="20" width="1" height="1" fill="rgb(108, 206, 210)"/><rect x="10" y="20" width="1" height="1" fill="rgb(107, 205, 209)"/><rect x="11" y="20" width="1" height="1" fill="rgb(105, 202, 208)"/><rect x="12" y="20" width="1" height="1" fill="rgb(103, 200, 206)"/><rect x="13" y="20" width="1" height="1" fill="rgb(101, 196, 203)"/><rect x="14" y="20" width="1" height="1" fill="rgb(98, 192, 200)"/><rect x="15" y="20" width="1" height="1" fill="rgb(95, 187, 196)"/><rect x="16" y="20" width="1" height="1" fill="rgb(91, 181, 192)"/><rect x="17" y="20" width="1" height="1" fill="rgb(87, 175, 187)"/><rect x="18" y="20" width="1" height="1" fill="rgb(82, 168, 182)"/><rect x="19" y="20" width="1" height="1" fill="rgb(77, 160, 176)"/><rect x="20" y="20" width="1" height="1" fill="rgb(71, 152, 169)"/><rect x="21" y="20" width="1" height="1" fill="rgb(65, 143, 162)"/><rect x="22" y="20" width="1" height="1" fill="rgb(58, 133, 155)"/><rect x="23" y="20" width="1" height="1" fill="rgb(51, 122, 146)"/><rect x="24" y="20" width="1" height="1" fill="rgb(43, 110, 137)"/><rect x="25" y="20" width="1" height="1" fill="rgb(41, 107, 135)"/><rect x="26" y="20" width="1" height="1" fill="rgb(41, 107, 135)"/><rect x="27" y="20" width="1" height="1" fill="rgb(40, 106, 134)"/><rect x="28" y="20" width="1" height="1" fill="rgb(40, 106, 134)"/><rect x="2" y="21" width="1" height="1" fill="rgb(74, 155, 171)"/><rect x="3" y="21" width="1" height="1" fill="rgb(87, 176, 187)"/><rect x="4" y="21" width="1" height="1" fill="rgb(94, 185, 194)"/><rect x="5" y="21" width="1" height="1" fill="rgb(97, 190, 198)"/><rect x="6" y="21" width="1" height="1" fill="rgb(100, 194, 201)"/><rect x="7" y="21" width="1" height="1" fill="rgb(101, 196, 202)"/><rect x="8" y="21" width="1" height="1" fill="rgb(101, 196, 203)"/><rect x="9" y="21" width="1" height="1" fill="rgb(101, 196, 203)"/><rect x="10" y="21" width="1" height="1" fill="rgb(100, 195, 202)"/><rect x="11" y="21" width="1" height="1" fill="rgb(99, 193, 200)"/><rect x="12" y="21" width="1" height="1" fill="rgb(97, 190, 198)"/><rect x="13" y="21" width="1" height="1" fill="rgb(94, 186, 195)"/><rect x="14" y="21" width="1" height="1" fill="rgb(91, 182, 192)"/><rect x="15" y="21" width="1" height="1" fill="rgb(88, 177, 188)"/><rect x="16" y="21" width="1" height="1" fill="rgb(84, 171, 184)"/><rect x="17" y="21" width="1" height="1" fill="rgb(80, 165, 179)"/><rect x="18" y="21" width="1" height="1" fill="rgb(75, 158, 174)"/><rect x="19" y="21" width="1" height="1" fill="rgb(70, 150, 168)"/><rect x="20" y="21" width="1" height="1" fill="rgb(64, 142, 162)"/><rect x="21" y="21" width="1" height="1" fill="rgb(58, 133, 154)"/><rect x="22" y="21" width="1" height="1" fill="rgb(51, 123, 147)"/><rect x="23" y="21" width="1" height="1" fill="rgb(44, 111, 138)"/><rect x="24" y="21" width="1" height="1" fill="rgb(41, 108, 135)"/><rect x="25" y="21" width="1" height="1" fill="rgb(41, 107, 135)"/><rect x="26" y="21" width="1" height="1" fill="rgb(41, 107, 134)"/><rect x="27" y="21" width="1" height="1" fill="rgb(40, 106, 134)"/><rect x="28" y="21" width="1" height="1" fill="rgb(40, 106, 133)"/><rect x="3" y="22" width="1" height="1" fill="rgb(76, 159, 174)"/><rect x="4" y="22" width="1" height="1" fill="rgb(84, 171, 183)"/><rect x="5" y="22" width="1" height="1" fill="rgb(89, 178, 189)"/><rect x="6" y="22" width="1" height="1" fill="rgb(92, 182, 192)"/><rect x="7" y="22" width="1" height="1" fill="rgb(93, 184, 194)"/><rect x="8" y="22" width="1" height="1" fill="rgb(94, 185, 194)"/><rect x="9" y="22" width="1" height="1" fill="rgb(93, 185, 194)"/><rect x="10" y="22" width="1" height="1" fill="rgb(93, 184, 193)"/><rect x="11" y="22" width="1" height="1" fill="rgb(91, 182, 192)"/><rect x="12" y="22" width="1" height="1" fill="rgb(89, 179, 190)"/><rect x="13" y="22" width="1" height="1" fill="rgb(87, 176, 187)"/><rect x="14" y="22" width="1" height="1" fill="rgb(84, 171, 184)"/><rect x="15" y="22" width="1" height="1" fill="rgb(81, 166, 180)"/><rect x="16" y="22" width="1" height="1" fill="rgb(77, 161, 176)"/><rect x="17" y="22" width="1" height="1" fill="rgb(73, 154, 171)"/><rect x="18" y="22" width="1" height="1" fill="rgb(68, 147, 166)"/><rect x="19" y="22" width="1" height="1" fill="rgb(63, 140, 160)"/><rect x="20" y="22" width="1" height="1" fill="rgb(57, 131, 153)"/><rect x="21" y="22" width="1" height="1" fill="rgb(51, 122, 146)"/><rect x="22" y="22" width="1" height="1" fill="rgb(44, 111, 138)"/><rect x="23" y="22" width="1" height="1" fill="rgb(41, 108, 135)"/><rect x="24" y="22" width="1" height="1" fill="rgb(41, 107, 135)"/><rect x="25" y="22" width="1" height="1" fill="rgb(41, 107, 135)"/><rect x="26" y="22" width="1" height="1" fill="rgb(40, 106, 134)"/><rect x="27" y="22" width="1" height="1" fill="rgb(40, 106, 134)"/><rect x="3" y="23" width="1" height="1" fill="rgb(57, 131, 153)"/><rect x="4" y="23" width="1" height="1" fill="rgb(73, 154, 171)"/><rect x="5" y="23" width="1" height="1" fill="rgb(79, 163, 178)"/><rect x="6" y="23" width="1" height="1" fill="rgb(82, 169, 182)"/><rect x="7" y="23" width="1" height="1" fill="rgb(84, 171, 184)"/><rect x="8" y="23" width="1" height="1" fill="rgb(85, 173, 185)"/><rect x="9" y="23" width="1" height="1" fill="rgb(85, 173, 185)"/><rect x="10" y="23" width="1" height="1" fill="rgb(85, 172, 184)"/><rect x="11" y="23" width="1" height="1" fill="rgb(83, 170, 183)"/><rect x="12" y="23" width="1" height="1" fill="rgb(82, 167, 181)"/><rect x="13" y="23" width="1" height="1" fill="rgb(79, 164, 178)"/><rect x="14" y="23" width="1" height="1" fill="rgb(76, 160, 175)"/><rect x="15" y="23" width="1" height="1" fill="rgb(73, 155, 171)"/><rect x="16" y="23" width="1" height="1" fill="rgb(69, 149, 167)"/><rect x="17" y="23" width="1" height="1" fill="rgb(65, 143, 162)"/><rect x="18" y="23" width="1" height="1" fill="rgb(60, 136, 157)"/><rect x="19" y="23" width="1" height="1" fill="rgb(55, 128, 151)"/><rect x="20" y="23" width="1" height="1" fill="rgb(49, 119, 144)"/><rect x="21" y="23" width="1" height="1" fill="rgb(43, 110, 137)"/><rect x="22" y="23" width="1" height="1" fill="rgb(41, 108, 135)"/><rect x="23" y="23" width="1" height="1" fill="rgb(41, 107, 135)"/><rect x="24" y="23" width="1" height="1" fill="rgb(41, 107, 135)"/><rect x="25" y="23" width="1" height="1" fill="rgb(40, 106, 134)"/><rect x="26" y="23" width="1" height="1" fill="rgb(40, 106, 134)"/><rect x="27" y="23" width="1" height="1" fill="rgb(40, 105, 133)"/><rect x="4" y="24" width="1" height="1" fill="rgb(57, 131, 153)"/><rect x="5" y="24" width="1" height="1" fill="rgb(67, 146, 164)"/><rect x="6" y="24" width="1" height="1" fill="rgb(72, 153, 170)"/><rect x="7" y="24" width="1" height="1" fill="rgb(75, 157, 173)"/><rect x="8" y="24" width="1" height="1" fill="rgb(76, 159, 174)"/><rect x="9" y="24" width="1" height="1" fill="rgb(76, 160, 175)"/><rect x="10" y="24" width="1" height="1" fill="rgb(76, 159, 174)"/><rect x="11" y="24" width="1" height="1" fill="rgb(75, 157, 173)"/><rect x="12" y="24" width="1" height="1" fill="rgb(73, 155, 171)"/><rect x="13" y="24" width="1" height="1" fill="rgb(71, 152, 169)"/><rect x="14" y="24" width="1" height="1" fill="rgb(68, 147, 166)"/><rect x="15" y="24" width="1" height="1" fill="rgb(65, 143, 162)"/><rect x="16" y="24" width="1" height="1" fill="rgb(61, 137, 158)"/><rect x="17" y="24" width="1" height="1" fill="rgb(57, 130, 153)"/><rect x="18" y="24" width="1" height="1" fill="rgb(52, 123, 147)"/><rect x="19" y="24" width="1" height="1" fill="rgb(46, 115, 141)"/><rect x="20" y="24" width="1" height="1" fill="rgb(41, 108, 136)"/><rect x="21" y="24" width="1" height="1" fill="rgb(41, 108, 135)"/><rect x="22" y="24" width="1" height="1" fill="rgb(41, 107, 135)"/><rect x="23" y="24" width="1" height="1" fill="rgb(41, 107, 135)"/><rect x="24" y="24" width="1" height="1" fill="rgb(40, 106, 134)"/><rect x="25" y="24" width="1" height="1" fill="rgb(40, 106, 134)"/><rect x="26" y="24" width="1" height="1" fill="rgb(40, 106, 133)"/><rect x="5" y="25" width="1" height="1" fill="rgb(51, 122, 146)"/><rect x="6" y="25" width="1" height="1" fill="rgb(60, 135, 156)"/><rect x="7" y="25" width="1" height="1" fill="rgb(64, 141, 160)"/><rect x="8" y="25" width="1" height="1" fill="rgb(66, 144, 163)"/><rect x="9" y="25" width="1" height="1" fill="rgb(66, 145, 164)"/><rect x="10" y="25" width="1" height="1" fill="rgb(66, 145, 163)"/><rect x="11" y="25" width="1" height="1" fill="rgb(65, 143, 163)"/><rect x="12" y="25" width="1" height="1" fill="rgb(64, 141, 161)"/><rect x="13" y="25" width="1" height="1" fill="rgb(62, 138, 158)"/><rect x="14" y="25" width="1" height="1" fill="rgb(59, 134, 155)"/><rect x="15" y="25" width="1" height="1" fill="rgb(56, 129, 152)"/><rect x="16" y="25" width="1" height="1" fill="rgb(52, 123, 147)"/><rect x="17" y="25" width="1" height="1" fill="rgb(47, 117, 142)"/><rect x="18" y="25" width="1" height="1" fill="rgb(43, 110, 137)"/><rect x="19" y="25" width="1" height="1" fill="rgb(41, 108, 135)"/><rect x="20" y="25" width="1" height="1" fill="rgb(41, 107, 135)"/><rect x="21" y="25" width="1" height="1" fill="rgb(41, 107, 135)"/><rect x="22" y="25" width="1" height="1" fill="rgb(41, 107, 135)"/><rect x="23" y="25" width="1" height="1" fill="rgb(40, 106, 134)"/><rect x="24" y="25" width="1" height="1" fill="rgb(40, 106, 134)"/><rect x="25" y="25" width="1" height="1" fill="rgb(40, 106, 133)"/><rect x="6" y="26" width="1" height="1" fill="rgb(42, 108, 135)"/><rect x="7" y="26" width="1" height="1" fill="rgb(50, 120, 145)"/><rect x="8" y="26" width="1" height="1" fill="rgb(53, 125, 149)"/><rect x="9" y="26" width="1" height="1" fill="rgb(55, 128, 151)"/><rect x="10" y="26" width="1" height="1" fill="rgb(55, 129, 151)"/><rect x="11" y="26" width="1" height="1" fill="rgb(55, 128, 151)"/><rect x="12" y="26" width="1" height="1" fill="rgb(54, 126, 149)"/><rect x="13" y="26" width="1" height="1" fill="rgb(52, 123, 147)"/><rect x="14" y="26" width="1" height="1" fill="rgb(49, 119, 144)"/><rect x="15" y="26" width="1" height="1" fill="rgb(46, 114, 140)"/><rect x="16" y="26" width="1" height="1" fill="rgb(42, 108, 136)"/><rect x="17" y="26" width="1" height="1" fill="rgb(41, 107, 135)"/><rect x="18" y="26" width="1" height="1" fill="rgb(41, 107, 135)"/><rect x="19" y="26" width="1" height="1" fill="rgb(41, 107, 135)"/><rect x="20" y="26" width="1" height="1" fill="rgb(41, 107, 135)"/><rect x="21" y="26" width="1" height="1" fill="rgb(41, 107, 134)"/><rect x="22" y="26" width="1" height="1" fill="rgb(40, 106, 134)"/><rect x="23" y="26" width="1" height="1" fill="rgb(40, 106, 134)"/><rect x="24" y="26" width="1" height="1" fill="rgb(40, 106, 133)"/><rect x="7" y="27" width="1" height="1" fill="rgb(40, 105, 133)"/><rect x="8" y="27" width="1" height="1" fill="rgb(40, 106, 134)"/><rect x="9" y="27" width="1" height="1" fill="rgb(41, 107, 135)"/><rect x="10" y="27" width="1" height="1" fill="rgb(43, 109, 136)"/><rect x="11" y="27" width="1" height="1" fill="rgb(43, 110, 137)"/><rect x="12" y="27" width="1" height="1" fill="rgb(42, 108, 136)"/><rect x="13" y="27" width="1" height="1" fill="rgb(41, 107, 135)"/><rect x="14" y="27" width="1" height="1" fill="rgb(41, 107, 135)"/><rect x="15" y="27" width="1" height="1" fill="rgb(41, 107, 135)"/><rect x="16" y="27" width="1" height="1" fill="rgb(41, 107, 135)"/><rect x="17" y="27" width="1" height="1" fill="rgb(41, 107, 135)"/><rect x="18" y="27" width="1" height="1" fill="rgb(41, 107, 134)"/><rect x="19" y="27" width="1" height="1" fill="rgb(41, 107, 134)"/><rect x="20" y="27" width="1" height="1" fill="rgb(40, 106, 134)"/><rect x="21" y="27" width="1" height="1" fill="rgb(40, 106, 134)"/><rect x="22" y="27" width="1" height="1" fill="rgb(40, 106, 134)"/><rect x="23" y="27" width="1" height="1" fill="rgb(40, 105, 133)"/><rect x="9" y="28" width="1" height="1" fill="rgb(40, 106, 133)"/><rect x="10" y="28" width="1" height="1" fill="rgb(40, 106, 134)"/><rect x="11" y="28" width="1" height="1" fill="rgb(40, 106, 134)"/><rect x="12" y="28" width="1" height="1" fill="rgb(40, 106, 134)"/><rect x="13" y="28" width="1" height="1" fill="rgb(40, 106, 134)"/><rect x="14" y="28" width="1" height="1" fill="rgb(40, 106, 134)"/><rect x="15" y="28" width="1" height="1" fill="rgb(40, 106, 134)"/><rect x="16" y="28" width="1" height="1" fill="rgb(40, 106, 134)"/><rect x="17" y="28" width="1" height="1" fill="rgb(40, 106, 134)"/><rect x="18" y="28" width="1" height="1" fill="rgb(40, 106, 134)"/><rect x="19" y="28" width="1" height="1" fill="rgb(40, 106, 134)"/><rect x="20" y="28" width="1" height="1" fill="rgb(40, 106, 134)"/><rect x="21" y="28" width="1" height="1" fill="rgb(40, 106, 133)"/><rect x="12" y="29" width="1" height="1" fill="rgb(40, 106, 133)"/><rect x="13" y="29" width="1" height="1" fill="rgb(40, 106, 133)"/><rect x="14" y="29" width="1" height="1" fill="rgb(40, 106, 134)"/><rect x="15" y="29" width="1" height="1" fill="rgb(40, 106, 134)"/><rect x="16" y="29" width="1" height="1" fill="rgb(40, 106, 134)"/><rect x="17" y="29" width="1" height="1" fill="rgb(40, 106, 133)"/><rect x="18" y="29" width="1" height="1" fill="rgb(40, 106, 133)"/></svg>