<svg xmlns="http://www.w3.org/2000/svg" viewBox="0 0 32 32" shape-rendering="crispEdges"><rect x="12" y="1" width="1" height="1" fill="rgb(120, 200, 222)"/><rect x="13" y="1" width="1" height="1" fill="rgb(121, 202, 223)"/><rect x="14" y="1" width="1" height="1" fill="rgb(121, 200, 222)"/><rect x="15" y="1" width="1" height="1" fill="rgb(119, 198, 220)"/><rect x="16" y="1" width="1" height="1" fill="rgb(115, 193, 217)"/><rect x="17" y="1" width="1" height="1" fill="rgb(111, 187, 212)"/><rect x="18" y="1" width="1" height="1" fill="rgb(105, 179, 205)"/><rect x="9" y="2" width="1" height="1" fill="rgb(125, 207, 227)"/><rect x="10" y="2" width="1" height="1" fill="rgb(129, 213, 232)"/><rect x="11" y="2" width="1" height="1" fill="rgb(131, 214, 233)"/><rect x="12" y="2" width="1" height="1" fill="rgb(131, 215, 233)"/><rect x="13" y="2" width="1" height="1" fill="rgb(130, 213, 233)"/><rect x="14" y="2" width="1" height="1" fill="rgb(128, 211, 231)"/><rect x="15" y="2" width="1" height="1" fill="rgb(126, 208, 228)"/><rect x="16" y="2" width="1" height="1" fill="rgb(123, 204, 225)"/><rect x="17" y="2" width="1" height="1" fill="rgb(120, 199, 221)"/><rect x="18" y="2" width="1" height="1" fill="rgb(115, 193, 217)"/><rect x="19" y="2" width="1" height="1" fill="rgb(110, 186, 211)"/><rect x="20" y="2" width="1" height="1" fill="rgb(104, 177, 204)"/><rect x="21" y="2" width="1" height="1" fill="rgb(94, 164, 194)"/><rect x="7" y="3" width="1" height="1" fill="rgb(124, 206, 226)"/><rect x="8" y="3" width="1" height="1" fill="rgb(132, 216, 235)"/><rect x="9" y="3" width="1" height="1" fill="rgb(135, 220, 238)"/><rect x="10" y="3" width="1" height="1" fill="rgb(136, 222, 239)"/><rect x="11" y="3" width="1" height="1" fill="rgb(136, 222, 239)"/><rect x="12" y="3" width="1" height="1" fill="rgb(135, 221, 239)"/><rect x="13" y="3" width="1" height="1" fill="rgb(134, 219, 237)"/><rect x="14" y="3" width="1" height="1" fill="rgb(132, 217, 235)"/><rect x="15" y="3" width="1" height="1" fill="rgb(130, 214, 233)"/><rect x="16" y="3" width="1" height="1" fill="rgb(127, 210, 230)"/><rect x="17" y="3" width="1" height="1" fill="rgb(124, 205, 226)"/><rect x="18" y="3" width="1" height="1" fill="rgb(120, 200, 222)"/><rect x="19" y="3" width="1" height="1" fill="rgb(115, 194, 217)"/><rect x="20" y="3" width="1" height="1" fill="rgb(110, 186, 211)"/><rect x="21" y="3" width="1" height="1" fill="rgb(104, 178, 204)"/><rect x="22" y="3" width="1" height="1" fill="rgb(96, 167, 196)"/><rect x="23" y="3" width="1" height="1" fill="rgb(83, 149, 182)"/><rect x="6" y="4" width="1" height="1" fill="rgb(129, 212, 232)"/><rect x="7" y="4" width="1" height="1" fill="rgb(135, 220, 238)"/><rect x="8" y="4" width="1" height="1" fill="rgb(138, 224, 241)"/><rect x="9" y="4" width="1" height="1" fill="rgb(139, 226, 243)"/><rect x="10" y="4" width="1" height="1" fill="rgb(139, 226, 243)"/><rect x="11" y="4" width="1" height="1" fill="rgb(139, 226, 243)"/><rect x="12" y="4" width="1" height="1" fill="rgb(138, 225, 242)"/><rect x="13" y="4" width="1" height="1" fill="rgb(137, 223, 240)"/><rect x="14" y="4" width="1" height="1" fill="rgb(135, 220, 238)"/><rect x="15" y="4" width="1" height="1" fill="rgb(132, 217, 236)"/><rect x="16" y="4" width="1" height="1" fill="rgb(130, 213, 233)"/><rect x="17" y="4" width="1" height="1" fill="rgb(126, 209, 229)"/><rect x="18" y="4" width="1" height="1" fill="rgb(123, 204, 225)"/><rect x="19" y="4" width="1" height="1" fill="rgb(118, 198, 220)"/><rect x="20" y="4" width="1" height="1" fill="rgb(114, 191, 215)"/><rect x="21" y="4" width="1" height="1" fill="rgb(108, 184, 209)"/><rect x="22" y="4" width="1" height="1" fill="rgb(102, 175, 202)"/><rect x="23" y="4" width="1" height="1" fill="rgb(94, 164, 194)"/><rect x="24" y="4" width="1" height="1" fill="rgb(83, 149, 182)"/><rect x="5" y="5" width="1" height="1" fill="rgb(130, 213, 233)"/><rect x="6" y="5" width="1" height="1" fill="rgb(136, 222, 239)"/><rect x="7" y="5" width="1" height="1" fill="rgb(139, 226, 243)"/><rect x="8" y="5" width="1" height="1" fill="rgb(141, 228, 244)"/><rect x="9" y="5" width="1" height="1" fill="rgb(142, 229, 245)"/><rect x="10" y="5" width="1" height="1" fill="rgb(141, 229, 245)"/><rect x="11" y="5" width="1" height="1" fill="rgb(141, 229, 245)"/><rect x="12" y="5" width="1" height="1" fill="rgb(140, 227, 244)"/><rect x="13" y="5" width="1" height="1" fill="rgb(138, 225, 242)"/><rect x="14" y="5" width="1" height="1" fill="rgb(136, 222, 240)"/><rect x="15" y="5" width="1" height="1" fill="rgb(134, 219, 237)"/><rect x="16" y="5" width="1" height="1" fill="rgb(131, 215, 234)"/><rect x="17" y="5" width="1" height="1" fill="rgb(128, 211, 231)"/><rect x="18" y="5" width="1" height="1" fill="rgb(124, 206, 227)"/><rect x="19" y="5" width="1" height="1" fill="rgb(120, 200, 223)"/><rect x="20" y="5" width="1" height="1" fill="rgb(116, 194, 218)"/><rect x="21" y="5" width="1" height="1" fill="rgb(111, 187, 212)"/><rect x="22" y="5" width="1" height="1" fill="rgb(105, 179, 206)"/><rect x="23" y="5" width="1" height="1" fill="rgb(98, 170, 198)"/><rect x="24" y="5" width="1" height="1" fill="rgb(90, 158, 189)"/><rect x="25" y="5" width="1" height="1" fill="rgb(78, 143, 177)"/><rect x="4" y="6" width="1" height="1" fill="rgb(128, 211, 231)"/><rect x="5" y="6" width="1" height="1" fill="rgb(136, 221, 239)"/><rect x="6" y="6" width="1" height="1" fill="rgb(139, 226, 243)"/><rect x="7" y="6" width="1" height="1" fill="rgb(141, 229, 245)"/><rect x="8" y="6" width="1" height="1" fill="rgb(143, 231, 246)"/><rect x="9" y="6" width="1" height="1" fill="rgb(143, 231, 247)"/><rect x="10" y="6" width="1" height="1" fill="rgb(143, 231, 247)"/><rect x="11" y="6" width="1" height="1" fill="rgb(142, 230, 246)"/><rect x="12" y="6" width="1" height="1" fill="rgb(141, 228, 245)"/><rect x="13" y="6" width="1" height="1" fill="rgb(139, 226, 243)"/><rect x="14" y="6" width="1" height="1" fill="rgb(137, 223, 241)"/><rect x="15" y="6" width="1" height="1" fill="rgb(135, 220, 238)"/><rect x="16" y="6" width="1" height="1" fill="rgb(132, 216, 235)"/><rect x="17" y="6" width="1" height="1" fill="rgb(129, 212, 232)"/><rect x="18" y="6" width="1" height="1" fill="rgb(125, 207, 228)"/><rect x="19" y="6" width="1" height="1" fill="rgb(121, 202, 224)"/><rect x="20" y="6" width="1" height="1" fill="rgb(117, 196, 219)"/><rect x="21" y="6" width="1" height="1" fill="rgb(112, 189, 214)"/><rect x="22" y="6" width="1" height="1" fill="rgb(106, 181, 208)"/><rect x="23" y="6" width="1" height="1" fill="rgb(100, 173, 201)"/><rect x="24" y="6" width="1" height="1" fill="rgb(93, 163, 193)"/><rect x="25" y="6" width="1" height="1" fill="rgb(84, 151, 183)"/><rect x="26" y="6" width="1" height="1" fill="rgb(72, 133, 170)"/><rect x="3" y="7" width="1" height="1" fill="rgb(123, 203, 224)"/><rect x="4" y="7" width="1" height="1" fill="rgb(134, 219, 237)"/><rect x="5" y="7" width="1" height="1" fill="rgb(138, 225, 242)"/><rect x="6" y="7" width="1" height="1" fill="rgb(141, 229, 245)"/><rect x="7" y="7" width="1" height="1" fill="rgb(143, 231, 246)"/><rect x="8" y="7" width="1" height="1" fill="rgb(143, 232, 247)"/><rect x="9" y="7" width="1" height="1" fill="rgb(143, 232, 248)"/><rect x="10" y="7" width="1" height="1" fill="rgb(143, 232, 247)"/><rect x="11" y="7" width="1" height="1" fill="rgb(142, 230, 246)"/><rect x="12" y="7" width="1" height="1" fill="rgb(141, 229, 245)"/><rect x="13" y="7" width="1" height="1" fill="rgb(139, 226, 243)"/><rect x="14" y="7" width="1" height="1" fill="rgb(137, 224, 241)"/><rect x="15" y="7" width="1" height="1" fill="rgb(135, 220, 239)"/><rect x="16" y="7" width="1" height="1" fill="rgb(132, 217, 236)"/><rect x="17" y="7" width="1" height="1" fill="rgb(129, 212, 232)"/><rect x="18" y="7" width="1" height="1" fill="rgb(125, 208, 228)"/><rect x="19" y="7" width="1" height="1" fill="rgb(122, 202, 224)"/><rect x="20" y="7" width="1" height="1" fill="rgb(117, 196, 219)"/><rect x="21" y="7" width="1" height="1" fill="rgb(112, 190, 214)"/><rect x="22" y="7" width="1" height="1" fill="rgb(107, 182, 208)"/><rect x="23" y="7" width="1" height="1" fill="rgb(101, 174, 202)"/><rect x="24" y="7" width="1" height="1" fill="rgb(95, 165, 195)"/><rect x="25" y="7" width="1" height="1" fill="rgb(87, 154, 186)"/><rect x="26" y="7" width="1" height="1" fill="rgb(77, 141, 176)"/><rect x="27" y="7" width="1" height="1" fill="rgb(62, 120, 159)"/><rect x="3" y="8" width="1" height="1" fill="rgb(130, 213, 233)"/><rect x="4" y="8" width="1" height="1" fill="rgb(136, 222, 239)"/><rect x="5" y="8" width="1" height="1" fill="rgb(140, 227, 243)"/><rect x="6" y="8" width="1" height="1" fill="rgb(142, 230, 246)"/><rect x="7" y="8" width="1" height="1" fill="rgb(143, 231, 247)"/><rect x="8" y="8" width="1" height="1" fill="rgb(143, 232, 248)"/><rect x="9" y="8" width="1" height="1" fill="rgb(143, 232, 248)"/><rect x="10" y="8" width="1" height="1" fill="rgb(143, 231, 247)"/><rect x="11" y="8" width="1" height="1" fill="rgb(142, 230, 246)"/><rect x="12" y="8" width="1" height="1" fill="rgb(141, 228, 245)"/><rect x="13" y="8" width="1" height="1" fill="rgb(139, 226, 243)"/><rect x="14" y="8" width="1" height="1" fill="rgb(137, 223, 241)"/><rect x="15" y="8" width="1" height="1" fill="rgb(135, 220, 239)"/><rect x="16" y="8" width="1" height="1" fill="rgb(132, 216, 236)"/><rect x="17" y="8" width="1" height="1" fill="rgb(129, 212, 232)"/><rect x="18" y="8" width="1" height="1" fill="rgb(125, 207, 228)"/><rect x="19" y="8" width="1" height="1" fill="rgb(121, 202, 224)"/><rect x="20" y="8" width="1" height="1" fill="rgb(117, 196, 220)"/><rect x="21" y="8" width="1" height="1" fill="rgb(112, 190, 214)"/><rect x="22" y="8" width="1" height="1" fill="rgb(107, 183, 209)"/><rect x="23" y="8" width="1" height="1" fill="rgb(102, 175, 202)"/><rect x="24" y="8" width="1" height="1" fill="rgb(95, 166, 196)"/><rect x="25" y="8" width="1" height="1" fill="rgb(88, 156, 188)"/><rect x="26" y="8" width="1" height="1" fill="rgb(79, 144, 178)"/><rect x="27" y="8" width="1" height="1" fill="rgb(68, 129, 166)"/><rect x="2" y="9" width="1" height="1" fill="rgb(122, 203, 224)"/><rect x="3" y="9" width="1" height="1" fill="rgb(132, 217, 235)"/><rect x="4" y="9" width="1" height="1" fill="rgb(137, 223, 240)"/><rect x="5" y="9" width="1" height="1" fill="rgb(140, 227, 243)"/><rect x="6" y="9" width="1" height="1" fill="rgb(142, 229, 246)"/><rect x="7" y="9" width="1" height="1" fill="rgb(143, 231, 247)"/><rect x="8" y="9" width="1" height="1" fill="rgb(143, 231, 247)"/><rect x="9" y="9" width="1" height="1" fill="rgb(143, 231, 247)"/><rect x="10" y="9" width="1" height="1" fill="rgb(142, 231, 247)"/><rect x="11" y="9" width="1" height="1" fill="rgb(141, 229, 246)"/><rect x="12" y="9" width="1" height="1" fill="rgb(140, 228, 245)"/><rect x="13" y="9" width="1" height="1" fill="rgb(138, 225, 243)"/><rect x="14" y="9" width="1" height="1" fill="rgb(136, 223, 241)"/><rect x="15" y="9" width="1" height="1" fill="rgb(134, 219, 238)"/><rect x="16" y="9" width="1" height="1" fill="rgb(131, 216, 235)"/><rect x="17" y="9" width="1" height="1" fill="rgb(128, 211, 232)"/><rect x="18" y="9" width="1" height="1" fill="rgb(125, 206, 228)"/><rect x="19" y="9" width="1" height="1" fill="rgb(121, 201, 224)"/><rect x="20" y="9" width="1" height="1" fill="rgb(116, 195, 219)"/><rect x="21" y="9" width="1" height="1" fill="rgb(112, 189, 214)"/><rect x="22" y="9" width="1" height="1" fill="rgb(107, 182, 208)"/><rect x="23" y="9" width="1" height="1" fill="rgb(101, 174, 202)"/><rect x="24" y="9" width="1" height="1" fill="rgb(95, 166, 196)"/><rect x="25" y="9" width="1" height="1" fill="rgb(88, 156, 188)"/><rect x="26" y="9" width="1" height="1" fill="rgb(80, 145, 179)"/><rect x="27" y="9" width="1" height="1" fill="rgb(70, 132, 168)"/><rect x="28" y="9" width="1" height="1" fill="rgb(62, 120, 159)"/><rect x="2" y="10" width="1" height="1" fill="rgb(126, 208, 228)"/><rect x="3" y="10" width="1" height="1" fill="rgb(133, 218, 236)"/><rect x="4" y="10" width="1" height="1" fill="rgb(137, 223, 240)"/><rect x="5" y="10" width="1" height="1" fill="rgb(139, 226, 243)"/><rect x="6" y="10" width="1" height="1" fill="rgb(141, 229, 245)"/><rect x="7" y="10" width="1" height="1" fill="rgb(142, 230, 246)"/><rect x="8" y="10" width="1" height="1" fill="rgb(142, 230, 246)"/><rect x="9" y="10" width="1" height="1" fill="rgb(142, 230, 246)"/><rect x="10" y="10" width="1" height="1" fill="rgb(141, 229, 246)"/><rect x="11" y="10" width="1" height="1" fill="rgb(140, 228, 245)"/><rect x="12" y="10" width="1" height="1" fill="rgb(139, 226, 244)"/><rect x="13" y="10" width="1" height="1" fill="rgb(137, 224, 242)"/><rect x="14" y="10" width="1" height="1" fill="rgb(135, 221, 240)"/><rect x="15" y="10" width="1" height="1" fill="rgb(133, 218, 237)"/><rect x="16" y="10" width="1" height="1" fill="rgb(130, 214, 234)"/><rect x="17" y="10" width="1" height="1" fill="rgb(127, 210, 231)"/><rect x="18" y="10" width="1" height="1" fill="rgb(123, 205, 227)"/><rect x="19" y="10" width="1" height="1" fill="rgb(120, 200, 223)"/><rect x="20" y="10" width="1" height="1" fill="rgb(115, 194, 218)"/><rect x="21" y="10" width="1" height="1" fill="rgb(111, 188, 213)"/><rect x="22" y="10" width="1" height="1" fill="rgb(106, 181, 207)"/><rect x="23" y="10" width="1" height="1" fill="rgb(100, 173, 201)"/><rect x="24" y="10" width="1" height="1" fill="rgb(94, 165, 195)"/><rect x="25" y="10" width="1" height="1" fill="rgb(88, 156, 188)"/><rect x="26" y="10" width="1" height="1" fill="rgb(80, 145, 179)"/><rect x="27" y="10" width="1" height="1" fill="rgb(71, 133, 169)"/><rect x="28" y="10" width="1" height="1" fill="rgb(62, 120, 159)"/><rect x="2" y="11" width="1" height="1" fill="rgb(127, 209, 229)"/><rect x="3" y="11" width="1" height="1" fill="rgb(133, 217, 236)"/><rect x="4" y="11" width="1" height="1" fill="rgb(136, 222, 240)"/><rect x="5" y="11" width="1" height="1" fill="rgb(138, 225, 242)"/><rect x="6" y="11" width="1" height="1" fill="rgb(140, 227, 244)"/><rect x="7" y="11" width="1" height="1" fill="rgb(140, 228, 245)"/><rect x="8" y="11" width="1" height="1" fill="rgb(141, 229, 245)"/><rect x="9" y="11" width="1" height="1" fill="rgb(140, 228, 245)"/><rect x="10" y="11" width="1" height="1" fill="rgb(140, 228, 244)"/><rect x="11" y="11" width="1" height="1" fill="rgb(139, 226, 244)"/><rect x="12" y="11" width="1" height="1" fill="rgb(138, 224, 242)"/><rect x="13" y="11" width="1" height="1" fill="rgb(136, 222, 241)"/><rect x="14" y="11" width="1" height="1" fill="rgb(134, 220, 238)"/><rect x="15" y="11" width="1" height="1" fill="rgb(131, 216, 236)"/><rect x="16" y="11" width="1" height="1" fill="rgb(129, 212, 233)"/><rect x="17" y="11" width="1" height="1" fill="rgb(126, 208, 229)"/><rect x="18" y="11" width="1" height="1" fill="rgb(122, 203, 226)"/><rect x="19" y="11" width="1" height="1" fill="rgb(118, 198, 221)"/><rect x="20" y="11" width="1" height="1" fill="rgb(114, 192, 217)"/><rect x="21" y="11" width="1" height="1" fill="rgb(110, 186, 212)"/><rect x="22" y="11" width="1" height="1" fill="rgb(105, 179, 206)"/><rect x="23" y="11" width="1" height="1" fill="rgb(99, 172, 200)"/><rect x="24" y="11" width="1" height="1" fill="rgb(93, 163, 194)"/><rect x="25" y="11" width="1" height="1" fill="rgb(87, 154, 187)"/><rect x="26" y="11" width="1" height="1" fill="rgb(79, 144, 178)"/><rect x="27" y="11" width="1" height="1" fill="rgb(71, 132, 169)"/><rect x="28" y="11" width="1" height="1" fill="rgb(62, 121, 160)"/><rect x="1" y="12" width="1" height="1" fill="rgb(116, 194, 217)"/><rect x="2" y="12" width="1" height="1" fill="rgb(127, 209, 229)"/><rect x="3" y="12" width="1" height="1" fill="rgb(132, 216, 235)"/><rect x="4" y="12" width="1" height="1" fill="rgb(135, 220, 238)"/><rect x="5" y="12" width="1" height="1" fill="rgb(137, 223, 241)"/><rect x="6" y="12" width="1" height="1" fill="rgb(138, 225, 242)"/><rect x="7" y="12" width="1" height="1" fill="rgb(139, 226, 243)"/><rect x="8" y="12" width="1" height="1" fill="rgb(139, 226, 243)"/><rect x="9" y="12" width="1" height="1" fill="rgb(139, 226, 243)"/><rect x="10" y="12" width="1" height="1" fill="rgb(138, 225, 243)"/><rect x="11" y="12" width="1" height="1" fill="rgb(137, 224, 242)"/><rect x="12" y="12" width="1" height="1" fill="rgb(136, 222, 241)"/><rect x="13" y="12" width="1" height="1" fill="rgb(134, 220, 239)"/><rect x="14" y="12" width="1" height="1" fill="rgb(132, 217, 237)"/><rect x="15" y="12" width="1" height="1" fill="rgb(130, 214, 234)"/><rect x="16" y="12" width="1" height="1" fill="rgb(127, 210, 231)"/><rect x="17" y="12" width="1" height="1" fill="rgb(124, 206, 228)"/><rect x="18" y="12" width="1" height="1" fill="rgb(120, 201, 224)"/><rect x="19" y="12" width="1" height="1" fill="rgb(117, 196, 220)"/><rect x="20" y="12" width="1" height="1" fill="rgb(112, 190, 215)"/><rect x="21" y="12" width="1" height="1" fill="rgb(108, 184, 210)"/><rect x="22" y="12" width="1" height="1" fill="rgb(103, 177, 204)"/><rect x="23" y="12" width="1" height="1" fill="rgb(98, 169, 198)"/><rect x="24" y="12" width="1" height="1" fill="rgb(92, 161, 192)"/><rect x="25" y="12" width="1" height="1" fill="rgb(85, 152, 185)"/><rect x="26" y="12" width="1" height="1" fill="rgb(78, 142, 177)"/><rect x="27" y="12" width="1" height="1" fill="rgb(70, 131, 168)"/><rect x="28" y="12" width="1" height="1" fill="rgb(62, 121, 160)"/><rect x="29" y="12" width="1" height="1" fill="rgb(62, 120, 159)"/><rect x="1" y="13" width="1" height="1" fill="rgb(116, 195, 218)"/><rect x="2" y="13" width="1" height="1" fill="rgb(125, 207, 228)"/><rect x="3" y="13" width="1" height="1" fill="rgb(130, 214, 233)"/><rect x="4" y="13" width="1" height="1" fill="rgb(133, 218, 236)"/><rect x="5" y="13" width="1" height="1" fill="rgb(135, 220, 238)"/><rect x="6" y="13" width="1" height="1" fill="rgb(136, 222, 240)"/><rect x="7" y="13" width="1" height="1" fill="rgb(137, 223, 241)"/><rect x="8" y="13" width="1" height="1" fill="rgb(137, 223, 241)"/><rect x="9" y="13" width="1" height="1" fill="rgb(137, 223, 241)"/><rect x="10" y="13" width="1" height="1" fill="rgb(136, 222, 240)"/><rect x="11" y="13" width="1" height="1" fill="rgb(135, 221, 240)"/><rect x="12" y="13" width="1" height="1" fill="rgb(134, 219, 238)"/><rect x="13" y="13" width="1" height="1" fill="rgb(132, 217, 237)"/><rect x="14" y="13" width="1" height="1" fill="rgb(130, 215, 235)"/><rect x="15" y="13" width="1" height="1" fill="rgb(128, 212, 232)"/><rect x="16" y="13" width="1" height="1" fill="rgb(125, 208, 229)"/><rect x="17" y="13" width="1" height="1" fill="rgb(122, 203, 226)"/><rect x="18" y="13" width="1" height="1" fill="rgb(118, 198, 222)"/><rect x="19" y="13" width="1" height="1" fill="rgb(114, 193, 217)"/><rect x="20" y="13" width="1" height="1" fill="rgb(110, 187, 213)"/><rect x="21" y="13" width="1" height="1" fill="rgb(106, 181, 208)"/><rect x="22" y="13" width="1" height="1" fill="rgb(101, 174, 202)"/><rect x="23" y="13" width="1" height="1" fill="rgb(95, 167, 196)"/><rect x="24" y="13" width="1" height="1" fill="rgb(90, 159, 190)"/><rect x="25" y="13" width="1" height="1" fill="rgb(83, 150, 183)"/><rect x="26" y="13" width="1" height="1" fill="rgb(76, 140, 175)"/><rect x="27" y="13" width="1" height="1" fill="rgb(68, 129, 166)"/><rect x="28" y="13" width="1" height="1" fill="rgb(62, 121, 160)"/><rect x="29" y="13" width="1" height="1" fill="rgb(62, 120, 159)"/><rect x="1" y="14" width="1" height="1" fill="rgb(115, 193, 217)"/><rect x="2" y="14" width="1" height="1" fill="rgb(123, 204, 225)"/><rect x="3" y="14" width="1" height="1" fill="rgb(128, 211, 230)"/><rect x="4" y="14" width="1" height="1" fill="rgb(131, 215, 234)"/><rect x="5" y="14" width="1" height="1" fill="rgb(133, 217, 236)"/><rect x="6" y="14" width="1" height="1" fill="rgb(134, 219, 237)"/><rect x="7" y="14" width="1" height="1" fill="rgb(134, 220, 238)"/><rect x="8" y="14" width="1" height="1" fill="rgb(134, 220, 238)"/><rect x="9" y="14" width="1" height="1" fill="rgb(134, 220, 238)"/><rect x="10" y="14" width="1" height="1" fill="rgb(134, 219, 238)"/><rect x="11" y="14" width="1" height="1" fill="rgb(133, 218, 237)"/><rect x="12" y="14" width="1" height="1" fill="rgb(131, 216, 236)"/><rect x="13" y="14" width="1" height="1" fill="rgb(130, 214, 234)"/><rect x="14" y="14" width="1" height="1" fill="rgb(128, 212, 233)"/><rect x="15" y="14" width="1" height="1" fill="rgb(126, 209, 230)"/><rect x="16" y="14" width="1" height="1" fill="rgb(123, 205, 227)"/><rect x="17" y="14" width="1" height="1" fill="rgb(120, 200, 223)"/><rect x="18" y="14" width="1" height="1" fill="rgb(116, 195, 219)"/><rect x="19" y="14" width="1" height="1" fill="rgb(112, 190, 215)"/><rect x="20" y="14" width="1" height="1" fill="rgb(108, 184, 210)"/><rect x="21" y="14" width="1" height="1" fill="rgb(103, 177, 205)"/><rect x="22" y="14" width="1" height="1" fill="rgb(98, 171, 200)"/><rect x="23" y="14" width="1" height="1" fill="rgb(93, 163, 194)"/><rect x="24" y="14" width="1" height="1" fill="rgb(87, 155, 187)"/><rect x="25" y="14" width="1" height="1" fill="rgb(81, 146, 180)"/><rect x="26" y="14" width="1" height="1" fill="rgb(74, 137, 173)"/><rect x="27" y="14" width="1" height="1" fill="rgb(66, 126, 164)"/><rect x="28" y="14" width="1" height="1" fill="rgb(63, 121, 160)"/><rect x="29" y="14" width="1" height="1" fill="rgb(62, 120, 159)"/><rect x="1" y="15" width="1" height="1" fill="rgb(113, 190, 214)"/><rect x="2" y="15" width="1" height="1" fill="rgb(121, 201, 223)"/><rect x="3" y="15" width="1" height="1" fill="rgb(125, 207, 228)"/><rect x="4" y="15" width="1" height="1" fill="rgb(128, 211, 231)"/><rect x="5" y="15" width="1" height="1" fill="rgb(130, 213, 233)"/><rect x="6" y="15" width="1" height="1" fill="rgb(131, 215, 234)"/><rect x="7" y="15" width="1" height="1" fill="rgb(131, 216, 235)"/><rect x="8" y="15" width="1" height="1" fill="rgb(132, 216, 235)"/><rect x="9" y="15" width="1" height="1" fill="rgb(131, 216, 235)"/><rect x="10" y="15" width="1" height="1" fill="rgb(131, 215, 235)"/><rect x="11" y="15" width="1" height="1" fill="rgb(130, 214, 234)"/><rect x="12" y="15" width="1" height="1" fill="rgb(129, 212, 233)"/><rect x="13" y="15" width="1" height="1" fill="rgb(127, 210, 231)"/><rect x="14" y="15" width="1" height="1" fill="rgb(125, 208, 230)"/><rect x="15" y="15" width="1" height="1" fill="rgb(123, 205, 228)"/><rect x="16" y="15" width="1" height="1" fill="rgb(120, 201, 224)"/><rect x="17" y="15" width="1" height="1" fill="rgb(117, 196, 220)"/><rect x="18" y="15" width="1" height="1" fill="rgb(113, 191, 216)"/><rect x="19" y="15" width="1" height="1" fill="rgb(109, 186, 212)"/><rect x="20" y="15" width="1" height="1" fill="rgb(105, 180, 207)"/><rect x="21" y="15" width="1" height="1" fill="rgb(100, 173, 202)"/><rect x="22" y="15" width="1" height="1" fill="rgb(95, 167, 197)"/><rect x="23" y="15" width="1" height="1" fill="rgb(90, 159, 191)"/><rect x="24" y="15" width="1" height="1" fill="rgb(84, 151, 184)"/><rect x="25" y="15" width="1" height="1" fill="rgb(78, 143, 177)"/><rect x="26" y="15" width="1" height="1" fill="rgb(71, 133, 170)"/><rect x="27" y="15" width="1" height="1" fill="rgb(63, 122, 161)"/><rect x="28" y="15" width="1" height="1" fill="rgb(63, 121, 160)"/><rect x="29" y="15" width="1" height="1" fill="rgb(62, 120, 159)"/><rect x="1" y="16" width="1" height="1" fill="rgb(109, 185, 210)"/><rect x="2" y="16" width="1" height="1" fill="rgb(117, 196, 219)"/><rect x="3" y="16" width="1" height="1" fill="rgb(122, 202, 224)"/><rect x="4" y="16" width="1" height="1" fill="rgb(125, 206, 227)"/><rect x="5" y="16" width="1" height="1" fill="rgb(127, 209, 229)"/><rect x="6" y="16" width="1" height="1" fill="rgb(128, 211, 231)"/><rect x="7" y="16" width="1" height="1" fill="rgb(128, 212, 232)"/><rect x="8" y="16" width="1" height="1" fill="rgb(128, 212, 232)"/><rect x="9" y="16" width="1" height="1" fill="rgb(128, 212, 232)"/><rect x="10" y="16" width="1" height="1" fill="rgb(128, 211, 231)"/><rect x="11" y="16" width="1" height="1" fill="rgb(127, 210, 231)"/><rect x="12" y="16" width="1" height="1" fill="rgb(125, 208, 229)"/><rect x="13" y="16" width="1" height="1" fill="rgb(124, 206, 228)"/><rect x="14" y="16" width="1" height="1" fill="rgb(122, 203, 226)"/><rect x="15" y="16" width="1" height="1" fill="rgb(120, 200, 224)"/><rect x="16" y="16" width="1" height="1" fill="rgb(117, 196, 221)"/><rect x="17" y="16" width="1" height="1" fill="rgb(114, 192, 217)"/><rect x="18" y="16" width="1" height="1" fill="rgb(110, 187, 213)"/><rect x="19" y="16" width="1" height="1" fill="rgb(106, 181, 208)"/><rect x="20" y="16" width="1" height="1" fill="rgb(102, 175, 204)"/><rect x="21" y="16" width="1" height="1" fill="rgb(97, 169, 199)"/><rect x="22" y="16" width="1" height="1" fill="rgb(92, 162, 193)"/><rect x="23" y="16" width="1" height="1" fill="rgb(87, 155, 187)"/><rect x="24" y="16" width="1" height="1" fill="rgb(81, 147, 181)"/><rect x="25" y="16" width="1" height="1" fill="rgb(75, 138, 174)"/><rect x="26" y="16" width="1" height="1" fill="rgb(68, 129, 166)"/><rect x="27" y="16" width="1" height="1" fill="rgb(63, 122, 161)"/><rect x="28" y="16" width="1" height="1" fill="rgb(63, 121, 160)"/><rect x="29" y="16" width="1" height="1" fill="rgb(62, 120, 159)"/><rect x="1" y="17" width="1" height="1" fill="rgb(104, 178, 205)"/><rect x="2" y="17" width="1" height="1" fill="rgb(113, 191, 215)"/><rect x="3" y="17" width="1" height="1" fill="rgb(118, 197, 220)"/><rect x="4" y="17" width="1" height="1" fill="rgb(121, 201, 223)"/><rect x="5" y="17" width="1" height="1" fill="rgb(123, 204, 226)"/><rect x="6" y="17" width="1" height="1" fill="rgb(124, 206, 227)"/><rect x="7" y="17" width="1" height="1" fill="rgb(125, 207, 228)"/><rect x="8" y="17" width="1" height="1" fill="rgb(125, 207, 228)"/><rect x="9" y="17" width="1" height="1" fill="rgb(125, 207, 228)"/><rect x="10" y="17" width="1" height="1" fill="rgb(124, 206, 228)"/><rect x="11" y="17" width="1" height="1" fill="rgb(123, 205, 227)"/><rect x="12" y="17" width="1" height="1" fill="rgb(122, 203, 225)"/><rect x="13" y="17" width="1" height="1" fill="rgb(120, 201, 224)"/><rect x="14" y="17" width="1" height="1" fill="rgb(118, 198, 222)"/><rect x="15" y="17" width="1" height="1" fill="rgb(116, 195, 219)"/><rect x="16" y="17" width="1" height="1" fill="rgb(113, 191, 216)"/><rect x="17" y="17" width="1" height="1" fill="rgb(110, 187, 213)"/><rect x="18" y="17" width="1" height="1" fill="rgb(106, 182, 209)"/><rect x="19" y="17" width="1" height="1" fill="rgb(102, 176, 204)"/><rect x="20" y="17" width="1" height="1" fill="rgb(98, 171, 200)"/><rect x="21" y="17" width="1" height="1" fill="rgb(94, 164, 195)"/><rect x="22" y="17" width="1" height="1" fill="rgb(89, 157, 189)"/><rect x="23" y="17" width="1" height="1" fill="rgb(83, 150, 183)"/><rect x="24" y="17" width="1" height="1" fill="rgb(78, 142, 177)"/><rect x="25" y="17" width="1" height="1" fill="rgb(71, 133, 170)"/><rect x="26" y="17" width="1" height="1" fill="rgb(64, 124, 162)"/><rect x="27" y="17" width="1" height="1" fill="rgb(63, 122, 161)"/><rect x="28" y="17" width="1" height="1" fill="rgb(62, 121, 160)"/><rect x="29" y="17" width="1" height="1" fill="rgb(62, 120, 159)"/><rect x="1" y="18" width="1" height="1" fill="rgb(98, 169, 198)"/><rect x="2" y="18" width="1" height="1" fill="rgb(109, 184, 210)"/><rect x="3" y="18" width="1" height="1" fill="rgb(114, 191, 215)"/><rect x="4" y="18" width="1" height="1" fill="rgb(117, 196, 219)"/><rect x="5" y="18" width="1" height="1" fill="rgb(119, 198, 221)"/><rect x="6" y="18" width="1" height="1" fill="rgb(120, 200, 223)"/><rect x="7" y="18" width="1" height="1" fill="rgb(121, 201, 224)"/><rect x="8" y="18" width="1" height="1" fill="rgb(121, 202, 224)"/><rect x="9" y="18" width="1" height="1" fill="rgb(121, 201, 224)"/><rect x="10" y="18" width="1" height="1" fill="rgb(120, 201, 223)"/><rect x="11" y="18" width="1" height="1" fill="rgb(119, 199, 222)"/><rect x="12" y="18" width="1" height="1" fill="rgb(118, 198, 221)"/><rect x="13" y="18" width="1" height="1" fill="rgb(116, 195, 219)"/><rect x="14" y="18" width="1" height="1" fill="rgb(114, 193, 217)"/><rect x="15" y="18" width="1" height="1" fill="rgb(112, 189, 215)"/><rect x="16" y="18" width="1" height="1" fill="rgb(109, 186, 212)"/><rect x="17" y="18" width="1" height="1" fill="rgb(106, 181, 208)"/><rect x="18" y="18" width="1" height="1" fill="rgb(102, 176, 204)"/><rect x="19" y="18" width="1" height="1" fill="rgb(99, 171, 200)"/><rect x="20" y="18" width="1" height="1" fill="rgb(94, 165, 196)"/><rect x="21" y="18" width="1" height="1" fill="rgb(90, 159, 190)"/><rect x="22" y="18" width="1" height="1" fill="rgb(85, 152, 185)"/><rect x="23" y="18" width="1" height="1" fill="rgb(80, 145, 179)"/><rect x="24" y="18" width="1" height="1" fill="rgb(74, 137, 173)"/><rect x="25" y="18" width="1" height="1" fill="rgb(67, 128, 166)"/><rect x="26" y="18" width="1" height="1" fill="rgb(63, 122, 161)"/><rect x="27" y="18" width="1" height="1" fill="rgb(63, 121, 160)"/><rect x="28" y="18" width="1" height="1" fill="rgb(62, 121, 160)"/><rect x="29" y="18" width="1" height="1" fill="rgb(62, 120, 159)"/><rect x="2" y="19" width="1" height="1" fill="rgb(103, 177, 204)"/><rect x="3" y="19" width="1" height="1" fill="rgb(109, 184, 210)"/><rect x="4" y="19" width="1" height="1" fill="rgb(112, 189, 214)"/><rect x="5" y="19" width="1" height="1" fill="rgb(114, 192, 216)"/><rect x="6" y="19" width="1" height="1" fill="rgb(116, 194, 218)"/><rect x="7" y="19" width="1" height="1" fill="rgb(117, 195, 219)"/><rect x="8" y="19" width="1" height="1" fill="rgb(117, 196, 219)"/><rect x="9" y="19" width="1" height="1" fill="rgb(117, 195, 219)"/><rect x="10" y="19" width="1" height="1" fill="rgb(116, 195, 219)"/><rect x="11" y="19" width="1" height="1" fill="rgb(115, 193, 218)"/><rect x="12" y="19" width="1" height="1" fill="rgb(114, 192, 216)"/><rect x="13" y="19" width="1" height="1" fill="rgb(112, 189, 215)"/><rect x="14" y="19" width="1" height="1" fill="rgb(110, 187, 213)"/><rect x="15" y="19" width="1" height="1" fill="rgb(108, 183, 210)"/><rect x="16" y="19" width="1" height="1" fill="rgb(105, 180, 207)"/><rect x="17" y="19" width="1" height="1" fill="rgb(102, 175, 204)"/><rect x="18" y="19" width="1" height="1" fill="rgb(98, 170, 200)"/><rect x="19" y="19" width="1" height="1" fill="rgb(94, 165, 196)"/><rect x="20" y="19" width="1" height="1" fill="rgb(90, 159, 191)"/><rect x="21" y="19" width="1" height="1" fill="rgb(86, 153, 186)"/><rect x="22" y="19" width="1" height="1" fill="rgb(81, 146, 180)"/><rect x="23" y="19" width="1" height="1" fill="rgb(75, 139, 174)"/><rect x="24" y="19" width="1" height="1" fill="rgb(69, 131, 168)"/><rect x="25" y="19" width="1" height="1" fill="rgb(63, 122, 161)"/><rect x="26" y="19" width="1" height="1" fill="rgb(63, 122, 161)"/><rect x="27" y="19" width="1" height="1" fill="rgb(63, 121, 160)"/><rect x="28" y="19" width="1" height="1" fill="rgb(62, 121, 160)"/><rect x="2" y="20" width="1" height="1" fill="rgb(96, 167, 196)"/><rect x="3" y="20" width="1" height="1" fill="rgb(103, 177, 204)"/><rect x="4" y="20" width="1" height="1" fill="rgb(107, 182, 208)"/><rect x="5" y="20" width="1" height="1" fill="rgb(109, 185, 211)"/><rect x="6" y="20" width="1" height="1" fill="rgb(111, 188, 213)"/><rect x="7" y="20" width="1" height="1" fill="rgb(112, 189, 214)"/><rect x="8" y="20" width="1" height="1" fill="rgb(112, 189, 214)"/><rect x="9" y="20" width="1" height="1" fill="rgb(112, 189, 214)"/><rect x="10" y="20" width="1" height="1" fill="rgb(111, 188, 214)"/><rect x="11" y="20" width="1" height="1" fill="rgb(110, 187, 213)"/><rect x="12" y="20" width="1" height="1" fill="rgb(109, 185, 211)"/><rect x="13" y="20" width="1" height="1" fill="rgb(107, 183, 210)"/><rect x="14" y="20" width="1" height="1" fill="rgb(105, 180, 207)"/><rect x="15" y="20" width="1" height="1" fill="rgb(103, 177, 205)"/><rect x="16" y="20" width="1" height="1" fill="rgb(100, 173, 202)"/><rect x="17" y="20" width="1" height="1" fill="rgb(97, 169, 198)"/><rect x="18" y="20" width="1" height="1" fill="rgb(94, 164, 195)"/><rect x="19" y="20" width="1" height="1" fill="rgb(90, 159, 190)"/><rect x="20" y="20" width="1" height="1" fill="rgb(85, 153, 186)"/><rect x="21" y="20" width="1" height="1" fill="rgb(81, 147, 181)"/><rect x="22" y="20" width="1" height="1" fill="rgb(76, 140, 175)"/><rect x="23" y="20" width="1" height="1" fill="rgb(70, 132, 169)"/><rect x="24" y="20" width="1" height="1" fill="rgb(64, 124, 163)"/><rect x="25" y="20" width="1" height="1" fill="rgb(63, 122, 161)"/><rect x="26" y="20" width="1" height="1" fill="rgb(63, 122, 161)"/><rect x="27" y="20" width="1" height="1" fill="rgb(63, 121, 160)"/><rect x="28" y="20" width="1" height="1" fill="rgb(62, 120, 159)"/><rect x="2" y="21" width="1" height="1" fill="rgb(86, 154, 185)"/><rect x="3" y="21" width="1" height="1" fill="rgb(96, 167, 196)"/><rect x="4" y="21" width="1" height="1" fill="rgb(101, 174, 202)"/><rect x="5" y="21" width="1" height="1" fill="rgb(104, 178, 205)"/><rect x="6" y="21" width="1" height="1" fill="rgb(106, 180, 207)"/><rect x="7" y="21" width="1" height="1" fill="rgb(107, 182, 208)"/><rect x="8" y="21" width="1" height="1" fill="rgb(107, 182, 209)"/><rect x="9" y="21" width="1" height="1" fill="rgb(107, 182, 209)"/><rect x="10" y="21" width="1" height="1" fill="rgb(106, 181, 208)"/><rect x="11" y="21" width="1" height="1" fill="rgb(105, 180, 207)"/><rect x="12" y="21" width="1" height="1" fill="rgb(104, 178, 206)"/><rect x="13" y="21" width="1" height="1" fill="rgb(102, 176, 204)"/><rect x="14" y="21" width="1" height="1" fill="rgb(100, 173, 202)"/><rect x="15" y="21" width="1" height="1" fill="rgb(98, 170, 199)"/><rect x="16" y="21" width="1" height="1" fill="rgb(95, 166, 196)"/><rect x="17" y="21" width="1" height="1" fill="rgb(92, 162, 193)"/><rect x="18" y="21" width="1" height="1" fill="rgb(89, 157, 189)"/><rect x="19" y="21" width="1" height="1" fill="rgb(85, 152, 185)"/><rect x="20" y="21" width="1" height="1" fill="rgb(80, 146, 180)"/><rect x="21" y="21" width="1" height="1" fill="rgb(76, 140, 175)"/><rect x="22" y="21" width="1" height="1" fill="rgb(71, 133, 170)"/><rect x="23" y="21" width="1" height="1" fill="rgb(65, 125, 164)"/><rect x="24" y="21" width="1" height="1" fill="rgb(63, 122, 161)"/><rect x="25" y="21" width="1" height="1" fill="rgb(63, 122, 161)"/><rect x="26" y="21" width="1" height="1" fill="rgb(63, 121, 160)"/><rect x="27" y="21" width="1" height="1" fill="rgb(62, 121, 160)"/><rect x="28" y="21" width="1" height="1" fill="rgb(62, 120, 159)"/><rect x="3" y="22" width="1" height="1" fill="rgb(88, 156, 187)"/><rect x="4" y="22" width="1" height="1" fill="rgb(94, 164, 194)"/><rect x="5" y="22" width="1" height="1" fill="rgb(98, 169, 198)"/><rect x="6" y="22" width="1" height="1" fill="rgb(100, 172, 200)"/><rect x="7" y="22" width="1" height="1" fill="rgb(101, 174, 202)"/><rect x="8" y="22" width="1" height="1" fill="rgb(101, 175, 202)"/><rect x="9" y="22" width="1" height="1" fill="rgb(101, 175, 203)"/><rect x="10" y="22" width="1" height="1" fill="rgb(101, 174, 202)"/><rect x="11" y="22" width="1" height="1" fill="rgb(100, 173, 201)"/><rect x="12" y="22" width="1" height="1" fill="rgb(99, 171, 200)"/><rect x="13" y="22" width="1" height="1" fill="rgb(97, 169, 198)"/><rect x="14" y="22" width="1" height="1" fill="rgb(95, 166, 196)"/><rect x="15" y="22" width="1" height="1" fill="rgb(93, 163, 193)"/><rect x="16" y="22" width="1" height="1" fill="rgb(90, 159, 190)"/><rect x="17" y="22" width="1" height="1" fill="rgb(87, 155, 187)"/><rect x="18" y="22" width="1" height="1" fill="rgb(83, 150, 183)"/><rect x="19" y="22" width="1" height="1" fill="rgb(79, 144, 179)"/><rect x="20" y="22" width="1" height="1" fill="rgb(75, 139, 174)"/><rect x="21" y="22" width="1" height="1" fill="rgb(70, 132, 169)"/><rect x="22" y="22" width="1" height="1" fill="rgb(65, 125, 164)"/><rect x="23" y="22" width="1" height="1" fill="rgb(63, 123, 161)"/><rect x="24" y="22" width="1" height="1" fill="rgb(63, 122, 161)"/><rect x="25" y="22" width="1" height="1" fill="rgb(63, 122, 161)"/><rect x="26" y="22" width="1" height="1" fill="rgb(63, 121, 160)"/><rect x="27" y="22" width="1" height="1" fill="rgb(62, 120, 159)"/><rect x="3" y="23" width="1" height="1" fill="rgb(75, 138, 173)"/><rect x="4" y="23" width="1" height="1" fill="rgb(86, 153, 185)"/><rect x="5" y="23" width="1" height="1" fill="rgb(90, 159, 190)"/><rect x="6" y="23" width="1" height="1" fill="rgb(93, 163, 193)"/><rect x="7" y="23" width="1" height="1" fill="rgb(95, 165, 195)"/><rect x="8" y="23" width="1" height="1" fill="rgb(95, 166, 196)"/><rect x="9" y="23" width="1" height="1" fill="rgb(95, 166, 196)"/><rect x="10" y="23" width="1" height="1" fill="rgb(95, 166, 196)"/><rect x="11" y="23" width="1" height="1" fill="rgb(94, 165, 195)"/><rect x="12" y="23" width="1" height="1" fill="rgb(93, 163, 194)"/><rect x="13" y="23" width="1" height="1" fill="rgb(91, 161, 192)"/><rect x="14" y="23" width="1" height="1" fill="rgb(89, 158, 190)"/><rect x="15" y="23" width="1" height="1" fill="rgb(87, 155, 187)"/><rect x="16" y="23" width="1" height="1" fill="rgb(84, 151, 184)"/><rect x="17" y="23" width="1" height="1" fill="rgb(81, 147, 181)"/><rect x="18" y="23" width="1" height="1" fill="rgb(77, 142, 177)"/><rect x="19" y="23" width="1" height="1" fill="rgb(74, 136, 173)"/><rect x="20" y="23" width="1" height="1" fill="rgb(69, 131, 168)"/><rect x="21" y="23" width="1" height="1" fill="rgb(64, 124, 163)"/><rect x="22" y="23" width="1" height="1" fill="rgb(63, 123, 161)"/><rect x="23" y="23" width="1" height="1" fill="rgb(63, 122, 161)"/><rect x="24" y="23" width="1" height="1" fill="rgb(63, 122, 161)"/><rect x="25" y="23" width="1" height="1" fill="rgb(63, 121, 160)"/><rect x="26" y="23" width="1" height="1" fill="rgb(62, 121, 160)"/><rect x="27" y="23" width="1" height="1" fill="rgb(62, 120, 159)"/><rect x="4" y="24" width="1" height="1" fill="rgb(74, 137, 173)"/><rect x="5" y="24" width="1" height="1" fill="rgb(82, 148, 181)"/><rect x="6" y="24" width="1" height="1" fill="rgb(85, 152, 185)"/><rect x="7" y="24" width="1" height="1" fill="rgb(88, 155, 187)"/><rect x="8" y="24" width="1" height="1" fill="rgb(89, 157, 188)"/><rect x="9" y="24" width="1" height="1" fill="rgb(89, 157, 189)"/><rect x="10" y="24" width="1" height="1" fill="rgb(89, 157, 189)"/><rect x="11" y="24" width="1" height="1" fill="rgb(88, 156, 188)"/><rect x="12" y="24" width="1" height="1" fill="rgb(87, 154, 187)"/><rect x="13" y="24" width="1" height="1" fill="rgb(85, 152, 185)"/><rect x="14" y="24" width="1" height="1" fill="rgb(83, 150, 183)"/><rect x="15" y="24" width="1" height="1" fill="rgb(81, 146, 180)"/><rect x="16" y="24" width="1" height="1" fill="rgb(78, 142, 177)"/><rect x="17" y="24" width="1" height="1" fill="rgb(75, 138, 174)"/><rect x="18" y="24" width="1" height="1" fill="rgb(71, 133, 170)"/><rect x="19" y="24" width="1" height="1" fill="rgb(67, 128, 166)"/><rect x="20" y="24" width="1" height="1" fill="rgb(64, 123, 162)"/><rect x="21" y="24" width="1" height="1" fill="rgb(63, 122, 161)"/><rect x="22" y="24" width="1" height="1" fill="rgb(63, 122, 161)"/><rect x="23" y="24" width="1" height="1" fill="rgb(63, 122, 161)"/><rect x="24" y="24" width="1" height="1" fill="rgb(63, 121, 160)"/><rect x="25" y="24" width="1" height="1" fill="rgb(62, 121, 160)"/><rect x="26" y="24" width="1" height="1" fill="rgb(62, 120, 159)"/><rect x="5" y="25" width="1" height="1" fill="rgb(70, 131, 168)"/><rect x="6" y="25" width="1" height="1" fill="rgb(76, 140, 175)"/><rect x="7" y="25" width="1" height="1" fill="rgb(79, 144, 178)"/><rect x="8" y="25" width="1" height="1" fill="rgb(81, 146, 180)"/><rect x="9" y="25" width="1" height="1" fill="rgb(82, 147, 181)"/><rect x="10" y="25" width="1" height="1" fill="rgb(82, 147, 181)"/><rect x="11" y="25" width="1" height="1" fill="rgb(81, 146, 180)"/><rect x="12" y="25" width="1" height="1" fill="rgb(80, 145, 179)"/><rect x="13" y="25" width="1" height="1" fill="rgb(78, 143, 178)"/><rect x="14" y="25" width="1" height="1" fill="rgb(76, 140, 175)"/><rect x="15" y="25" width="1" height="1" fill="rgb(74, 137, 173)"/><rect x="16" y="25" width="1" height="1" fill="rgb(71, 133, 170)"/><rect x="17" y="25" width="1" height="1" fill="rgb(68, 129, 166)"/><rect x="18" y="25" width="1" height="1" fill="rgb(64, 124, 162)"/><rect x="19" y="25" width="1" height="1" fill="rgb(63, 122, 161)"/><rect x="20" y="25" width="1" height="1" fill="rgb(63, 122, 161)"/><rect x="21" y="25" width="1" height="1" fill="rgb(63, 122, 161)"/><rect x="22" y="25" width="1" height="1" fill="rgb(63, 122, 161)"/><rect x="23" y="25" width="1" height="1" fill="rgb(63, 121, 160)"/><rect x="24" y="25" width="1" height="1" fill="rgb(62, 121, 160)"/><rect x="25" y="25" width="1" height="1" fill="rgb(62, 120, 159)"/><rect x="6" y="26" width="1" height="1" fill="rgb(63, 122, 161)"/><rect x="7" y="26" width="1" height="1" fill="rgb(69, 130, 167)"/><rect x="8" y="26" width="1" height="1" fill="rgb(72, 134, 170)"/><rect x="9" y="26" width="1" height="1" fill="rgb(73, 136, 172)"/><rect x="10" y="26" width="1" height="1" fill="rgb(74, 136, 172)"/><rect x="11" y="26" width="1" height="1" fill="rgb(73, 136, 172)"/><rect x="12" y="26" width="1" height="1" fill="rgb(72, 134, 171)"/><rect x="13" y="26" width="1" height="1" fill="rgb(71, 133, 169)"/><rect x="14" y="26" width="1" height="1" fill="rgb(69, 130, 167)"/><rect x="15" y="26" width="1" height="1" fill="rgb(67, 127, 165)"/><rect x="16" y="26" width="1" height="1" fill="rgb(64, 123, 162)"/><rect x="17" y="26" width="1" height="1" fill="rgb(63, 122, 161)"/><rect x="18" y="26" width="1" height="1" fill="rgb(63, 122, 161)"/><rect x="19" y="26" width="1" height="1" fill="rgb(63, 122, 161)"/><rect x="20" y="26" width="1" height="1" fill="rgb(63, 122, 161)"/><rect x="21" y="26" width="1" height="1" fill="rgb(63, 121, 160)"/><rect x="22" y="26" width="1" height="1" fill="rgb(63, 121, 160)"/><rect x="23" y="26" width="1" height="1" fill="rgb(62, 121, 160)"/><rect x="24" y="26" width="1" height="1" fill="rgb(62, 120, 159)"/><rect x="7" y="27" width="1" height="1" fill="rgb(62, 120, 159)"/><rect x="8" y="27" width="1" height="1" fill="rgb(62, 120, 159)"/><rect x="9" y="27" width="1" height="1" fill="rgb(63, 122, 160)"/><rect x="10" y="27" width="1" height="1" fill="rgb(64, 123, 162)"/><rect x="11" y="27" width="1" height="1" fill="rgb(64, 123, 162)"/><rect x="12" y="27" width="1" height="1" fill="rgb(64, 122, 161)"/><rect x="13" y="27" width="1" height="1" fill="rgb(63, 122, 161)"/><rect x="14" y="27" width="1" height="1" fill="rgb(63, 122, 161)"/><rect x="15" y="27" width="1" height="1" fill="rgb(63, 122, 161)"/><rect x="16" y="27" width="1" height="1" fill="rgb(63, 122, 161)"/><rect x="17" y="27" width="1" height="1" fill="rgb(63, 122, 161)"/><rect x="18" y="27" width="1" height="1" fill="rgb(63, 121, 160)"/><rect x="19" y="27" width="1" height="1" fill="rgb(63, 121, 160)"/><rect x="20" y="27" width="1" height="1" fill="rgb(63, 121, 160)"/><rect x="21" y="27" width="1" height="1" fill="rgb(62, 121, 160)"/><rect x="22" y="27" width="1" height="1" fill="rgb(62, 120, 159)"/><rect x="23" y="27" width="1" height="1" fill="rgb(62, 120, 159)"/><rect x="9" y="28" width="1" height="1" fill="rgb(62, 120, 159)"/><rect x="10" y="28" width="1" height="1" fill="rgb(62, 120, 159)"/><rect x="11" y="28" width="1" height="1" fill="rgb(62, 121, 160)"/><rect x="12" y="28" width="1" height="1" fill="rgb(62, 121, 160)"/><rect x="13" y="28" width="1" height="1" fill="rgb(62, 121, 160)"/><rect x="14" y="28" width="1" height="1" fill="rgb(63, 121, 160)"/><rect x="15" y="28" width="1" height="1" fill="rgb(63, 121, 160)"/><rect x="16" y="28" width="1" height="1" fill="rgb(63, 121, 160)"/><rect x="17" y="28" width="1" height="1" fill="rgb(62, 121, 160)"/><rect x="18" y="28" width="1" height="1" fill="rgb(62, 121, 160)"/><rect x="19" y="28" width="1" height="1" fill="rgb(62, 121, 160)"/><rect x="20" y="28" width="1" height="1" fill="rgb(62, 120, 159)"/><rect x="21" y="28" width="1" height="1" fill="rgb(62, 120, 159)"/><rect x="12" y="29" width="1" height="1" fill="rgb(62, 120, 159)"/><rect x="13" y="29" width="1" height="1" fill="rgb(62, 120, 159)"/><rect x="14" y="29" width="1" height="1" fill="rgb(62, 120, 159)"/><rect x="15" y="29" width="1" height="1" fill="rgb(62, 120, 159)"/><rect x="16" y="29" width="1" height="1" fill="rgb(62, 120, 159)"/><rect x="17" y="29" width="1" height="1" fill="rgb(62, 120, 159)"/><rect x="18" y="29" width="1" height="1" fill="rgb(62, 120, 159)"/></svg>